<svg xmlns="http://www.w3.org/2000/svg" xmlns:xlink="http://www.w3.org/1999/xlink" width="248" height="248"><defs><path id="a" d="M16 195.266v-12.146s1.091-3.119 4.409-3.119h8.569s1.021.217 1.021.908v11.543s-.331.549-1.021.549h-9.035c0-.001-1.943.175-3.943 2.265"/></defs><linearGradient id="b" gradientUnits="userSpaceOnUse" x1="16" y1="187.633" x2="30" y2="187.633"><stop offset="0" stop-color="#fff"/><stop offset="1" stop-color="#E7E7E7"/></linearGradient><use xlink:href="#a" overflow="visible" fill="url(#b)"/><clipPath id="c"><use xlink:href="#a" overflow="visible"/></clipPath><linearGradient id="d" gradientUnits="userSpaceOnUse" x1="-212.218" y1="1681.936" x2="-211.218" y2="1681.936" gradientTransform="matrix(1 -68.996 -68.996 -1 116280.688 -12715.938)"><stop offset="0" stop-color="#fff"/><stop offset="1" stop-color="#E7E7E7"/></linearGradient><polygon clip-path="url(#c)" fill="url(#d)" points="15.779,195.263 16.003,179.797 30.221,180.003 29.997,195.469"/><defs><path id="e" d="M14 189.193v-12.146s-.39-2.41-3.707-3.047h-8.569s-.519.145-.724.834v11.545s.034.621.725.621h9.034s2.241.104 3.241 2.193"/></defs><linearGradient id="f" gradientUnits="userSpaceOnUse" x1="1" y1="181.597" x2="14" y2="181.597"><stop offset="0" stop-color="#fff"/><stop offset="1" stop-color="#E7E7E7"/></linearGradient><use xlink:href="#e" overflow="visible" fill="url(#f)"/><clipPath id="g"><use xlink:href="#e" overflow="visible"/></clipPath><linearGradient id="h" gradientUnits="userSpaceOnUse" x1="-212.212" y1="1681.938" x2="-211.21" y2="1681.938" gradientTransform="matrix(1 -69.004 -69.004 -1 116280.063 -12717.313)"><stop offset="0" stop-color="#fff"/><stop offset="1" stop-color="#E7E7E7"/></linearGradient><polygon clip-path="url(#g)" fill="url(#h)" points="0.78,189.189 1.003,173.812 14.22,174.003 13.997,189.381"/><defs><path id="i" d="M16 212.57v-12.146s1.091-2.424 4.409-3.424h8.569s1.021.521 1.021 1.212v11.544s-.331 1.244-1.021 1.244h-9.035s-1.943-.52-3.943 1.57"/></defs><linearGradient id="j" gradientUnits="userSpaceOnUse" x1="16" y1="204.785" x2="30" y2="204.785"><stop offset="0" stop-color="#fff"/><stop offset="1" stop-color="#E7E7E7"/></linearGradient><use xlink:href="#i" overflow="visible" fill="url(#j)"/><clipPath id="k"><use xlink:href="#i" overflow="visible"/></clipPath><linearGradient id="l" gradientUnits="userSpaceOnUse" x1="-212.215" y1="1681.939" x2="-211.217" y2="1681.939" gradientTransform="matrix(1 -68.996 -68.996 -1 116281.25 -12715.75)"><stop offset="0" stop-color="#fff"/><stop offset="1" stop-color="#E7E7E7"/></linearGradient><polygon clip-path="url(#k)" fill="url(#l)" points="15.774,212.566 16.003,196.797 30.226,197.003 29.997,212.773"/><defs><path id="m" d="M14 206.498v-12.146s-.39-2.352-3.707-3.352h-8.569s-.519.449-.724 1.14v11.544s.034.316.725.316h9.034s2.241.408 3.241 2.498"/></defs><linearGradient id="n" gradientUnits="userSpaceOnUse" x1="1" y1="198.749" x2="14" y2="198.749"><stop offset="0" stop-color="#fff"/><stop offset="1" stop-color="#E7E7E7"/></linearGradient><use xlink:href="#m" overflow="visible" fill="url(#n)"/><clipPath id="o"><use xlink:href="#m" overflow="visible"/></clipPath><linearGradient id="p" gradientUnits="userSpaceOnUse" x1="-212.219" y1="1681.937" x2="-211.219" y2="1681.937" gradientTransform="matrix(1 -69.002 -69.002 -1 116276.375 -12717.375)"><stop offset="0" stop-color="#fff"/><stop offset="1" stop-color="#E7E7E7"/></linearGradient><polygon clip-path="url(#o)" fill="url(#p)" points="0.775,206.494 1.003,190.812 14.225,191.003 13.997,206.687"/><defs><path id="q" d="M16 229.875v-12.146s1.091-2.729 4.409-3.729h8.569s1.021.826 1.021 1.518v11.543s-.331.939-1.021.939h-9.035s-1.943-.214-3.943 1.875"/></defs><linearGradient id="r" gradientUnits="userSpaceOnUse" x1="16" y1="221.938" x2="30" y2="221.938"><stop offset="0" stop-color="#fff"/><stop offset="1" stop-color="#E7E7E7"/></linearGradient><use xlink:href="#q" overflow="visible" fill="url(#r)"/><clipPath id="s"><use xlink:href="#q" overflow="visible"/></clipPath><linearGradient id="t" gradientUnits="userSpaceOnUse" x1="-212.217" y1="1681.928" x2="-211.217" y2="1681.928" gradientTransform="matrix(1 -68.998 -68.998 -1 116284.375 -12716.25)"><stop offset="0" stop-color="#fff"/><stop offset="1" stop-color="#E7E7E7"/></linearGradient><polygon clip-path="url(#s)" fill="url(#t)" points="15.77,229.871 16.003,213.797 30.23,214.004 29.997,230.078"/><defs><path id="u" d="M14 223.803v-12.146s-.39-2.656-3.707-2.656h-8.569s-.519-.246-.724.443v11.545s.034.012.725.012h9.034c0-.001 2.241.712 3.241 2.802"/></defs><linearGradient id="v" gradientUnits="userSpaceOnUse" x1="1" y1="216.38" x2="14" y2="216.38"><stop offset="0" stop-color="#fff"/><stop offset="1" stop-color="#E7E7E7"/></linearGradient><use xlink:href="#u" overflow="visible" fill="url(#v)"/><clipPath id="w"><use xlink:href="#u" overflow="visible"/></clipPath><linearGradient id="x" gradientUnits="userSpaceOnUse" x1="-212.22" y1="1681.934" x2="-211.222" y2="1681.934" gradientTransform="matrix(1 -69.002 -69.002 -1 116276.625 -12717.563)"><stop offset="0" stop-color="#fff"/><stop offset="1" stop-color="#E7E7E7"/></linearGradient><polygon clip-path="url(#w)" fill="url(#x)" points="0.782,223.8 1.003,208.566 14.218,208.758 13.997,223.991"/><defs><path id="y" d="M16 247.18v-12.146s1.091-3.033 4.409-3.033h8.569s1.021.131 1.021.82v11.545s-.331.635-1.021.635h-9.035c0-.001-1.943.09-3.943 2.179"/></defs><linearGradient id="z" gradientUnits="userSpaceOnUse" x1="16" y1="239.59" x2="30" y2="239.59"><stop offset="0" stop-color="#fff"/><stop offset="1" stop-color="#E7E7E7"/></linearGradient><use xlink:href="#y" overflow="visible" fill="url(#z)"/><clipPath id="A"><use xlink:href="#y" overflow="visible"/></clipPath><linearGradient id="B" gradientUnits="userSpaceOnUse" x1="-212.215" y1="1681.93" x2="-211.218" y2="1681.93" gradientTransform="matrix(1 -68.998 -68.998 -1 116284.75 -12716.188)"><stop offset="0" stop-color="#fff"/><stop offset="1" stop-color="#E7E7E7"/></linearGradient><polygon clip-path="url(#A)" fill="url(#B)" points="15.78,247.177 16.003,231.797 30.22,232.003 29.997,247.383"/><defs><path id="C" d="M14 241.107v-12.146s-.39-1.961-3.707-2.961h-8.569s-.519.059-.724.749v11.544s.034.707.725.707h9.034s2.241.018 3.241 2.107"/></defs><linearGradient id="D" gradientUnits="userSpaceOnUse" x1="1" y1="233.554" x2="14" y2="233.554"><stop offset="0" stop-color="#fff"/><stop offset="1" stop-color="#E7E7E7"/></linearGradient><use xlink:href="#C" overflow="visible" fill="url(#D)"/><clipPath id="E"><use xlink:href="#C" overflow="visible"/></clipPath><linearGradient id="F" gradientUnits="userSpaceOnUse" x1="-212.219" y1="1681.935" x2="-211.221" y2="1681.935" gradientTransform="matrix(1 -68.996 -68.996 -1 116265.688 -12716.188)"><stop offset="0" stop-color="#fff"/><stop offset="1" stop-color="#E7E7E7"/></linearGradient><polygon clip-path="url(#E)" fill="url(#F)" points="0.781,241.104 1.003,225.812 14.219,226.003 13.997,241.295"/><defs><path id="G" d="M47 195.266v-12.146s1.091-3.119 4.409-3.119h8.569s1.021.217 1.021.908v11.543s-.331.549-1.021.549h-9.035c0-.001-1.943.175-3.943 2.265"/></defs><linearGradient id="H" gradientUnits="userSpaceOnUse" x1="47" y1="187.633" x2="61" y2="187.633"><stop offset="0" stop-color="#fff"/><stop offset="1" stop-color="#E7E7E7"/></linearGradient><use xlink:href="#G" overflow="visible" fill="url(#H)"/><clipPath id="I"><use xlink:href="#G" overflow="visible"/></clipPath><linearGradient id="J" gradientUnits="userSpaceOnUse" x1="-212.212" y1="1681.486" x2="-211.212" y2="1681.486" gradientTransform="matrix(1 -68.996 -68.996 -1 116280.688 -12715.938)"><stop offset="0" stop-color="#fff"/><stop offset="1" stop-color="#E7E7E7"/></linearGradient><polygon clip-path="url(#I)" fill="url(#J)" points="46.779,195.263 47.003,179.797 61.221,180.003 60.997,195.469"/><defs><path id="K" d="M45 189.193v-12.146s-.39-2.41-3.707-3.047h-8.569s-.519.145-.724.834v11.545s.034.621.725.621h9.034s2.241.104 3.241 2.193"/></defs><linearGradient id="L" gradientUnits="userSpaceOnUse" x1="32" y1="181.597" x2="45" y2="181.597"><stop offset="0" stop-color="#fff"/><stop offset="1" stop-color="#E7E7E7"/></linearGradient><use xlink:href="#K" overflow="visible" fill="url(#L)"/><clipPath id="M"><use xlink:href="#K" overflow="visible"/></clipPath><linearGradient id="N" gradientUnits="userSpaceOnUse" x1="-212.203" y1="1681.488" x2="-211.203" y2="1681.488" gradientTransform="matrix(1 -69.004 -69.004 -1 116280.063 -12717.313)"><stop offset="0" stop-color="#fff"/><stop offset="1" stop-color="#E7E7E7"/></linearGradient><polygon clip-path="url(#M)" fill="url(#N)" points="31.78,189.189 32.003,173.812 45.22,174.003 44.997,189.381"/><defs><path id="O" d="M47 212.57v-12.146s1.091-2.424 4.409-3.424h8.569s1.021.521 1.021 1.212v11.544s-.331 1.244-1.021 1.244h-9.035s-1.943-.52-3.943 1.57"/></defs><linearGradient id="P" gradientUnits="userSpaceOnUse" x1="47" y1="204.785" x2="61" y2="204.785"><stop offset="0" stop-color="#fff"/><stop offset="1" stop-color="#E7E7E7"/></linearGradient><use xlink:href="#O" overflow="visible" fill="url(#P)"/><clipPath id="Q"><use xlink:href="#O" overflow="visible"/></clipPath><linearGradient id="R" gradientUnits="userSpaceOnUse" x1="-212.208" y1="1681.49" x2="-211.21" y2="1681.49" gradientTransform="matrix(1 -68.996 -68.996 -1 116281.25 -12715.75)"><stop offset="0" stop-color="#fff"/><stop offset="1" stop-color="#E7E7E7"/></linearGradient><polygon clip-path="url(#Q)" fill="url(#R)" points="46.774,212.566 47.003,196.797 61.226,197.003 60.997,212.773"/><defs><path id="S" d="M45 206.498v-12.146s-.39-2.352-3.707-3.352h-8.569s-.519.449-.724 1.14v11.544s.034.316.725.316h9.034s2.241.408 3.241 2.498"/></defs><linearGradient id="T" gradientUnits="userSpaceOnUse" x1="32" y1="198.749" x2="45" y2="198.749"><stop offset="0" stop-color="#fff"/><stop offset="1" stop-color="#E7E7E7"/></linearGradient><use xlink:href="#S" overflow="visible" fill="url(#T)"/><clipPath id="U"><use xlink:href="#S" overflow="visible"/></clipPath><linearGradient id="V" gradientUnits="userSpaceOnUse" x1="-212.213" y1="1681.487" x2="-211.211" y2="1681.487" gradientTransform="matrix(1 -69.002 -69.002 -1 116276.375 -12717.375)"><stop offset="0" stop-color="#fff"/><stop offset="1" stop-color="#E7E7E7"/></linearGradient><polygon clip-path="url(#U)" fill="url(#V)" points="31.775,206.494 32.003,190.812 45.225,191.003 44.997,206.687"/><defs><path id="W" d="M47 229.875v-12.146s1.091-2.729 4.409-3.729h8.569s1.021.826 1.021 1.518v11.543s-.331.939-1.021.939h-9.035s-1.943-.214-3.943 1.875"/></defs><linearGradient id="X" gradientUnits="userSpaceOnUse" x1="47" y1="221.938" x2="61" y2="221.938"><stop offset="0" stop-color="#fff"/><stop offset="1" stop-color="#E7E7E7"/></linearGradient><use xlink:href="#W" overflow="visible" fill="url(#X)"/><clipPath id="Y"><use xlink:href="#W" overflow="visible"/></clipPath><linearGradient id="Z" gradientUnits="userSpaceOnUse" x1="-212.211" y1="1681.478" x2="-211.209" y2="1681.478" gradientTransform="matrix(1 -68.998 -68.998 -1 116284.375 -12716.25)"><stop offset="0" stop-color="#fff"/><stop offset="1" stop-color="#E7E7E7"/></linearGradient><polygon clip-path="url(#Y)" fill="url(#Z)" points="46.77,229.871 47.003,213.797 61.23,214.004 60.997,230.078"/><defs><path id="aa" d="M45 223.803v-12.146s-.39-2.656-3.707-2.656h-8.569s-.519-.246-.724.443v11.545s.034.012.725.012h9.034c0-.001 2.241.712 3.241 2.802"/></defs><linearGradient id="ab" gradientUnits="userSpaceOnUse" x1="32" y1="216.38" x2="45" y2="216.38"><stop offset="0" stop-color="#fff"/><stop offset="1" stop-color="#E7E7E7"/></linearGradient><use xlink:href="#aa" overflow="visible" fill="url(#ab)"/><clipPath id="ac"><use xlink:href="#aa" overflow="visible"/></clipPath><linearGradient id="ad" gradientUnits="userSpaceOnUse" x1="-212.214" y1="1681.484" x2="-211.216" y2="1681.484" gradientTransform="matrix(1 -69.002 -69.002 -1 116276.625 -12717.563)"><stop offset="0" stop-color="#fff"/><stop offset="1" stop-color="#E7E7E7"/></linearGradient><polygon clip-path="url(#ac)" fill="url(#ad)" points="31.782,223.8 32.003,208.566 45.218,208.758 44.997,223.991"/><defs><path id="ae" d="M47 247.18v-12.146s1.091-3.033 4.409-3.033h8.569s1.021.131 1.021.82v11.545s-.331.635-1.021.635h-9.035c0-.001-1.943.09-3.943 2.179"/></defs><linearGradient id="af" gradientUnits="userSpaceOnUse" x1="47" y1="239.59" x2="61" y2="239.59"><stop offset="0" stop-color="#fff"/><stop offset="1" stop-color="#E7E7E7"/></linearGradient><use xlink:href="#ae" overflow="visible" fill="url(#af)"/><clipPath id="ag"><use xlink:href="#ae" overflow="visible"/></clipPath><linearGradient id="ah" gradientUnits="userSpaceOnUse" x1="-212.209" y1="1681.48" x2="-211.211" y2="1681.48" gradientTransform="matrix(1 -68.998 -68.998 -1 116284.75 -12716.188)"><stop offset="0" stop-color="#fff"/><stop offset="1" stop-color="#E7E7E7"/></linearGradient><polygon clip-path="url(#ag)" fill="url(#ah)" points="46.78,247.177 47.003,231.797 61.22,232.003 60.997,247.383"/><defs><path id="ai" d="M45 241.107v-12.146s-.39-1.961-3.707-2.961h-8.569s-.519.059-.724.749v11.544s.034.707.725.707h9.034s2.241.018 3.241 2.107"/></defs><linearGradient id="aj" gradientUnits="userSpaceOnUse" x1="32" y1="233.554" x2="45" y2="233.554"><stop offset="0" stop-color="#fff"/><stop offset="1" stop-color="#E7E7E7"/></linearGradient><use xlink:href="#ai" overflow="visible" fill="url(#aj)"/><clipPath id="ak"><use xlink:href="#ai" overflow="visible"/></clipPath><linearGradient id="al" gradientUnits="userSpaceOnUse" x1="-212.213" y1="1681.485" x2="-211.213" y2="1681.485" gradientTransform="matrix(1 -68.996 -68.996 -1 116265.688 -12716.188)"><stop offset="0" stop-color="#fff"/><stop offset="1" stop-color="#E7E7E7"/></linearGradient><polygon clip-path="url(#ak)" fill="url(#al)" points="31.781,241.104 32.003,225.812 45.219,226.003 44.997,241.295"/><defs><path id="am" d="M78 195.266v-12.146s1.091-3.119 4.409-3.119h8.569s1.021.217 1.021.908v11.543s-.331.549-1.021.549h-9.035c0-.001-1.943.175-3.943 2.265"/></defs><linearGradient id="an" gradientUnits="userSpaceOnUse" x1="78" y1="187.633" x2="92" y2="187.633"><stop offset="0" stop-color="#fff"/><stop offset="1" stop-color="#E7E7E7"/></linearGradient><use xlink:href="#am" overflow="visible" fill="url(#an)"/><clipPath id="ao"><use xlink:href="#am" overflow="visible"/></clipPath><linearGradient id="ap" gradientUnits="userSpaceOnUse" x1="-212.206" y1="1681.037" x2="-211.206" y2="1681.037" gradientTransform="matrix(1 -68.996 -68.996 -1 116280.688 -12715.938)"><stop offset="0" stop-color="#fff"/><stop offset="1" stop-color="#E7E7E7"/></linearGradient><polygon clip-path="url(#ao)" fill="url(#ap)" points="77.779,195.263 78.003,179.797 92.221,180.003 91.997,195.469"/><defs><path id="aq" d="M76 189.193v-12.146s-.39-2.41-3.707-3.047h-8.569s-.519.145-.724.834v11.545s.034.621.725.621h9.034s2.241.104 3.241 2.193"/></defs><linearGradient id="ar" gradientUnits="userSpaceOnUse" x1="63" y1="181.597" x2="76" y2="181.597"><stop offset="0" stop-color="#fff"/><stop offset="1" stop-color="#E7E7E7"/></linearGradient><use xlink:href="#aq" overflow="visible" fill="url(#ar)"/><clipPath id="as"><use xlink:href="#aq" overflow="visible"/></clipPath><linearGradient id="at" gradientUnits="userSpaceOnUse" x1="-212.197" y1="1681.039" x2="-211.197" y2="1681.039" gradientTransform="matrix(1 -69.004 -69.004 -1 116280.063 -12717.313)"><stop offset="0" stop-color="#fff"/><stop offset="1" stop-color="#E7E7E7"/></linearGradient><polygon clip-path="url(#as)" fill="url(#at)" points="62.78,189.189 63.003,173.812 76.22,174.003 75.997,189.381"/><defs><path id="au" d="M78 212.57v-12.146s1.091-2.424 4.409-3.424h8.569s1.021.521 1.021 1.212v11.544s-.331 1.244-1.021 1.244h-9.035s-1.943-.52-3.943 1.57"/></defs><linearGradient id="av" gradientUnits="userSpaceOnUse" x1="78" y1="204.785" x2="92" y2="204.785"><stop offset="0" stop-color="#fff"/><stop offset="1" stop-color="#E7E7E7"/></linearGradient><use xlink:href="#au" overflow="visible" fill="url(#av)"/><clipPath id="aw"><use xlink:href="#au" overflow="visible"/></clipPath><linearGradient id="ax" gradientUnits="userSpaceOnUse" x1="-212.202" y1="1681.041" x2="-211.204" y2="1681.041" gradientTransform="matrix(1 -68.996 -68.996 -1 116281.25 -12715.75)"><stop offset="0" stop-color="#fff"/><stop offset="1" stop-color="#E7E7E7"/></linearGradient><polygon clip-path="url(#aw)" fill="url(#ax)" points="77.774,212.566 78.003,196.797 92.226,197.003 91.997,212.773"/><defs><path id="ay" d="M76 206.498v-12.146s-.39-2.352-3.707-3.352h-8.569s-.519.449-.724 1.14v11.544s.034.316.725.316h9.034s2.241.408 3.241 2.498"/></defs><linearGradient id="az" gradientUnits="userSpaceOnUse" x1="63" y1="198.749" x2="76" y2="198.749"><stop offset="0" stop-color="#fff"/><stop offset="1" stop-color="#E7E7E7"/></linearGradient><use xlink:href="#ay" overflow="visible" fill="url(#az)"/><clipPath id="aA"><use xlink:href="#ay" overflow="visible"/></clipPath><linearGradient id="aB" gradientUnits="userSpaceOnUse" x1="-212.206" y1="1681.038" x2="-211.206" y2="1681.038" gradientTransform="matrix(1 -69.002 -69.002 -1 116276.375 -12717.375)"><stop offset="0" stop-color="#fff"/><stop offset="1" stop-color="#E7E7E7"/></linearGradient><polygon clip-path="url(#aA)" fill="url(#aB)" points="62.775,206.494 63.003,190.812 76.225,191.003 75.997,206.687"/><defs><path id="aC" d="M78 229.875v-12.146s1.091-2.729 4.409-3.729h8.569s1.021.826 1.021 1.518v11.543s-.331.939-1.021.939h-9.035s-1.943-.214-3.943 1.875"/></defs><linearGradient id="aD" gradientUnits="userSpaceOnUse" x1="78" y1="221.938" x2="92" y2="221.938"><stop offset="0" stop-color="#fff"/><stop offset="1" stop-color="#E7E7E7"/></linearGradient><use xlink:href="#aC" overflow="visible" fill="url(#aD)"/><clipPath id="aE"><use xlink:href="#aC" overflow="visible"/></clipPath><linearGradient id="aF" gradientUnits="userSpaceOnUse" x1="-212.204" y1="1681.029" x2="-211.204" y2="1681.029" gradientTransform="matrix(1 -68.998 -68.998 -1 116284.375 -12716.25)"><stop offset="0" stop-color="#fff"/><stop offset="1" stop-color="#E7E7E7"/></linearGradient><polygon clip-path="url(#aE)" fill="url(#aF)" points="77.77,229.871 78.003,213.797 92.23,214.004 91.997,230.078"/><defs><path id="aG" d="M76 223.803v-12.146s-.39-2.656-3.707-2.656h-8.569s-.519-.246-.724.443v11.545s.034.012.725.012h9.034c0-.001 2.241.712 3.241 2.802"/></defs><linearGradient id="aH" gradientUnits="userSpaceOnUse" x1="63" y1="216.38" x2="76" y2="216.38"><stop offset="0" stop-color="#fff"/><stop offset="1" stop-color="#E7E7E7"/></linearGradient><use xlink:href="#aG" overflow="visible" fill="url(#aH)"/><clipPath id="aI"><use xlink:href="#aG" overflow="visible"/></clipPath><linearGradient id="aJ" gradientUnits="userSpaceOnUse" x1="-212.207" y1="1681.035" x2="-211.209" y2="1681.035" gradientTransform="matrix(1 -69.002 -69.002 -1 116276.625 -12717.563)"><stop offset="0" stop-color="#fff"/><stop offset="1" stop-color="#E7E7E7"/></linearGradient><polygon clip-path="url(#aI)" fill="url(#aJ)" points="62.782,223.8 63.003,208.566 76.218,208.758 75.997,223.991"/><defs><path id="aK" d="M78 247.18v-12.146s1.091-3.033 4.409-3.033h8.569s1.021.131 1.021.82v11.545s-.331.635-1.021.635h-9.035c0-.001-1.943.09-3.943 2.179"/></defs><linearGradient id="aL" gradientUnits="userSpaceOnUse" x1="78" y1="239.59" x2="92" y2="239.59"><stop offset="0" stop-color="#fff"/><stop offset="1" stop-color="#E7E7E7"/></linearGradient><use xlink:href="#aK" overflow="visible" fill="url(#aL)"/><clipPath id="aM"><use xlink:href="#aK" overflow="visible"/></clipPath><linearGradient id="aN" gradientUnits="userSpaceOnUse" x1="-212.203" y1="1681.031" x2="-211.203" y2="1681.031" gradientTransform="matrix(1 -68.998 -68.998 -1 116284.75 -12716.188)"><stop offset="0" stop-color="#fff"/><stop offset="1" stop-color="#E7E7E7"/></linearGradient><polygon clip-path="url(#aM)" fill="url(#aN)" points="77.78,247.177 78.003,231.797 92.22,232.003 91.997,247.383"/><defs><path id="aO" d="M76 241.107v-12.146s-.39-1.961-3.707-2.961h-8.569s-.519.059-.724.749v11.544s.034.707.725.707h9.034s2.241.018 3.241 2.107"/></defs><linearGradient id="aP" gradientUnits="userSpaceOnUse" x1="63" y1="233.554" x2="76" y2="233.554"><stop offset="0" stop-color="#fff"/><stop offset="1" stop-color="#E7E7E7"/></linearGradient><use xlink:href="#aO" overflow="visible" fill="url(#aP)"/><clipPath id="aQ"><use xlink:href="#aO" overflow="visible"/></clipPath><linearGradient id="aR" gradientUnits="userSpaceOnUse" x1="-212.207" y1="1681.036" x2="-211.207" y2="1681.036" gradientTransform="matrix(1 -68.996 -68.996 -1 116265.688 -12716.188)"><stop offset="0" stop-color="#fff"/><stop offset="1" stop-color="#E7E7E7"/></linearGradient><polygon clip-path="url(#aQ)" fill="url(#aR)" points="62.781,241.104 63.003,225.812 76.219,226.003 75.997,241.295"/><defs><path id="aS" d="M109 195.266v-12.146s1.091-3.119 4.409-3.119h8.569s1.021.217 1.021.908v11.543s-.331.549-1.021.549h-9.035c0-.001-1.943.175-3.943 2.265"/></defs><linearGradient id="aT" gradientUnits="userSpaceOnUse" x1="109" y1="187.633" x2="123" y2="187.633"><stop offset="0" stop-color="#fff"/><stop offset="1" stop-color="#E7E7E7"/></linearGradient><use xlink:href="#aS" overflow="visible" fill="url(#aT)"/><clipPath id="aU"><use xlink:href="#aS" overflow="visible"/></clipPath><linearGradient id="aV" gradientUnits="userSpaceOnUse" x1="-212.199" y1="1680.588" x2="-211.199" y2="1680.588" gradientTransform="matrix(1 -68.996 -68.996 -1 116280.688 -12715.938)"><stop offset="0" stop-color="#fff"/><stop offset="1" stop-color="#E7E7E7"/></linearGradient><polygon clip-path="url(#aU)" fill="url(#aV)" points="108.779,195.263 109.003,179.797 123.221,180.003 122.997,195.469"/><defs><path id="aW" d="M107 189.193v-12.146s-.39-2.41-3.707-3.047h-8.569s-.519.145-.724.834v11.545s.034.621.725.621h9.034s2.241.104 3.241 2.193"/></defs><linearGradient id="aX" gradientUnits="userSpaceOnUse" x1="94" y1="181.597" x2="107" y2="181.597"><stop offset="0" stop-color="#fff"/><stop offset="1" stop-color="#E7E7E7"/></linearGradient><use xlink:href="#aW" overflow="visible" fill="url(#aX)"/><clipPath id="aY"><use xlink:href="#aW" overflow="visible"/></clipPath><linearGradient id="aZ" gradientUnits="userSpaceOnUse" x1="-212.192" y1="1680.59" x2="-211.19" y2="1680.59" gradientTransform="matrix(1 -69.004 -69.004 -1 116280.063 -12717.313)"><stop offset="0" stop-color="#fff"/><stop offset="1" stop-color="#E7E7E7"/></linearGradient><polygon clip-path="url(#aY)" fill="url(#aZ)" points="93.78,189.189 94.003,173.812 107.22,174.003 106.997,189.381"/><defs><path id="ba" d="M109 212.57v-12.146s1.091-2.424 4.409-3.424h8.569s1.021.521 1.021 1.212v11.544s-.331 1.244-1.021 1.244h-9.035s-1.943-.52-3.943 1.57"/></defs><linearGradient id="bb" gradientUnits="userSpaceOnUse" x1="109" y1="204.785" x2="123" y2="204.785"><stop offset="0" stop-color="#fff"/><stop offset="1" stop-color="#E7E7E7"/></linearGradient><use xlink:href="#ba" overflow="visible" fill="url(#bb)"/><clipPath id="bc"><use xlink:href="#ba" overflow="visible"/></clipPath><linearGradient id="bd" gradientUnits="userSpaceOnUse" x1="-212.195" y1="1680.592" x2="-211.197" y2="1680.592" gradientTransform="matrix(1 -68.996 -68.996 -1 116281.25 -12715.75)"><stop offset="0" stop-color="#fff"/><stop offset="1" stop-color="#E7E7E7"/></linearGradient><polygon clip-path="url(#bc)" fill="url(#bd)" points="108.774,212.566 109.003,196.797 123.226,197.003 122.997,212.773"/><defs><path id="be" d="M107 206.498v-12.146s-.39-2.352-3.707-3.352h-8.569s-.519.449-.724 1.14v11.544s.034.316.725.316h9.034s2.241.408 3.241 2.498"/></defs><linearGradient id="bf" gradientUnits="userSpaceOnUse" x1="94" y1="198.749" x2="107" y2="198.749"><stop offset="0" stop-color="#fff"/><stop offset="1" stop-color="#E7E7E7"/></linearGradient><use xlink:href="#be" overflow="visible" fill="url(#bf)"/><clipPath id="bg"><use xlink:href="#be" overflow="visible"/></clipPath><linearGradient id="bh" gradientUnits="userSpaceOnUse" x1="-212.199" y1="1680.589" x2="-211.199" y2="1680.589" gradientTransform="matrix(1 -69.002 -69.002 -1 116276.375 -12717.375)"><stop offset="0" stop-color="#fff"/><stop offset="1" stop-color="#E7E7E7"/></linearGradient><polygon clip-path="url(#bg)" fill="url(#bh)" points="93.775,206.494 94.003,190.812 107.225,191.003 106.997,206.687"/><defs><path id="bi" d="M109 229.875v-12.146s1.091-2.729 4.409-3.729h8.569s1.021.826 1.021 1.518v11.543s-.331.939-1.021.939h-9.035s-1.943-.214-3.943 1.875"/></defs><linearGradient id="bj" gradientUnits="userSpaceOnUse" x1="109" y1="221.938" x2="123" y2="221.938"><stop offset="0" stop-color="#fff"/><stop offset="1" stop-color="#E7E7E7"/></linearGradient><use xlink:href="#bi" overflow="visible" fill="url(#bj)"/><clipPath id="bk"><use xlink:href="#bi" overflow="visible"/></clipPath><linearGradient id="bl" gradientUnits="userSpaceOnUse" x1="-212.198" y1="1680.58" x2="-211.198" y2="1680.58" gradientTransform="matrix(1 -68.998 -68.998 -1 116284.375 -12716.25)"><stop offset="0" stop-color="#fff"/><stop offset="1" stop-color="#E7E7E7"/></linearGradient><polygon clip-path="url(#bk)" fill="url(#bl)" points="108.77,229.871 109.003,213.797 123.23,214.004 122.997,230.078"/><defs><path id="bm" d="M107 223.803v-12.146s-.39-2.656-3.707-2.656h-8.569s-.519-.246-.724.443v11.545s.034.012.725.012h9.034c0-.001 2.241.712 3.241 2.802"/></defs><linearGradient id="bn" gradientUnits="userSpaceOnUse" x1="94" y1="216.38" x2="107" y2="216.38"><stop offset="0" stop-color="#fff"/><stop offset="1" stop-color="#E7E7E7"/></linearGradient><use xlink:href="#bm" overflow="visible" fill="url(#bn)"/><clipPath id="bo"><use xlink:href="#bm" overflow="visible"/></clipPath><linearGradient id="bp" gradientUnits="userSpaceOnUse" x1="-212.201" y1="1680.586" x2="-211.203" y2="1680.586" gradientTransform="matrix(1 -69.002 -69.002 -1 116276.625 -12717.563)"><stop offset="0" stop-color="#fff"/><stop offset="1" stop-color="#E7E7E7"/></linearGradient><polygon clip-path="url(#bo)" fill="url(#bp)" points="93.782,223.8 94.003,208.566 107.218,208.758 106.997,223.991"/><defs><path id="bq" d="M109 247.18v-12.146s1.091-3.033 4.409-3.033h8.569s1.021.131 1.021.82v11.545s-.331.635-1.021.635h-9.035c0-.001-1.943.09-3.943 2.179"/></defs><linearGradient id="br" gradientUnits="userSpaceOnUse" x1="109" y1="239.59" x2="123" y2="239.59"><stop offset="0" stop-color="#fff"/><stop offset="1" stop-color="#E7E7E7"/></linearGradient><use xlink:href="#bq" overflow="visible" fill="url(#br)"/><clipPath id="bs"><use xlink:href="#bq" overflow="visible"/></clipPath><linearGradient id="bt" gradientUnits="userSpaceOnUse" x1="-212.196" y1="1680.582" x2="-211.198" y2="1680.582" gradientTransform="matrix(1 -68.998 -68.998 -1 116284.75 -12716.188)"><stop offset="0" stop-color="#fff"/><stop offset="1" stop-color="#E7E7E7"/></linearGradient><polygon clip-path="url(#bs)" fill="url(#bt)" points="108.78,247.177 109.003,231.797 123.22,232.003 122.997,247.383"/><defs><path id="bu" d="M107 241.107v-12.146s-.39-1.961-3.707-2.961h-8.569s-.519.059-.724.749v11.544s.034.707.725.707h9.034s2.241.018 3.241 2.107"/></defs><linearGradient id="bv" gradientUnits="userSpaceOnUse" x1="94" y1="233.554" x2="107" y2="233.554"><stop offset="0" stop-color="#fff"/><stop offset="1" stop-color="#E7E7E7"/></linearGradient><use xlink:href="#bu" overflow="visible" fill="url(#bv)"/><clipPath id="bw"><use xlink:href="#bu" overflow="visible"/></clipPath><linearGradient id="bx" gradientUnits="userSpaceOnUse" x1="-212.2" y1="1680.587" x2="-211.202" y2="1680.587" gradientTransform="matrix(1 -68.996 -68.996 -1 116265.688 -12716.188)"><stop offset="0" stop-color="#fff"/><stop offset="1" stop-color="#E7E7E7"/></linearGradient><polygon clip-path="url(#bw)" fill="url(#bx)" points="93.781,241.104 94.003,225.812 107.219,226.003 106.997,241.295"/><defs><path id="by" d="M140.24 195.266v-12.146s1.091-3.119 4.409-3.119h8.569s1.021.217 1.021.908v11.543s-.331.549-1.021.549h-9.035c0-.001-1.943.175-3.943 2.265"/></defs><linearGradient id="bz" gradientUnits="userSpaceOnUse" x1="140.24" y1="187.633" x2="154.24" y2="187.633"><stop offset="0" stop-color="#fff"/><stop offset="1" stop-color="#E7E7E7"/></linearGradient><use xlink:href="#by" overflow="visible" fill="url(#bz)"/><clipPath id="bA"><use xlink:href="#by" overflow="visible"/></clipPath><linearGradient id="bB" gradientUnits="userSpaceOnUse" x1="-212.192" y1="1680.135" x2="-211.192" y2="1680.135" gradientTransform="matrix(1 -68.996 -68.996 -1 116280.688 -12715.938)"><stop offset="0" stop-color="#fff"/><stop offset="1" stop-color="#E7E7E7"/></linearGradient><polygon clip-path="url(#bA)" fill="url(#bB)" points="140.019,195.263 140.243,179.797 154.46,180.003 154.237,195.469"/><defs><path id="bC" d="M138.24 189.193v-12.146s-.39-2.41-3.707-3.047h-8.569s-.519.145-.724.834v11.545s.034.621.725.621h9.034s2.241.104 3.241 2.193"/></defs><linearGradient id="bD" gradientUnits="userSpaceOnUse" x1="125.24" y1="181.597" x2="138.24" y2="181.597"><stop offset="0" stop-color="#fff"/><stop offset="1" stop-color="#E7E7E7"/></linearGradient><use xlink:href="#bC" overflow="visible" fill="url(#bD)"/><clipPath id="bE"><use xlink:href="#bC" overflow="visible"/></clipPath><linearGradient id="bF" gradientUnits="userSpaceOnUse" x1="-212.184" y1="1680.138" x2="-211.184" y2="1680.138" gradientTransform="matrix(1 -69.004 -69.004 -1 116280.063 -12717.313)"><stop offset="0" stop-color="#fff"/><stop offset="1" stop-color="#E7E7E7"/></linearGradient><polygon clip-path="url(#bE)" fill="url(#bF)" points="125.02,189.189 125.243,173.812 138.46,174.003 138.237,189.381"/><defs><path id="bG" d="M140.24 212.57v-12.146s1.091-2.424 4.409-3.424h8.569s1.021.521 1.021 1.212v11.544s-.331 1.244-1.021 1.244h-9.035s-1.943-.52-3.943 1.57"/></defs><linearGradient id="bH" gradientUnits="userSpaceOnUse" x1="140.24" y1="204.785" x2="154.24" y2="204.785"><stop offset="0" stop-color="#fff"/><stop offset="1" stop-color="#E7E7E7"/></linearGradient><use xlink:href="#bG" overflow="visible" fill="url(#bH)"/><clipPath id="bI"><use xlink:href="#bG" overflow="visible"/></clipPath><linearGradient id="bJ" gradientUnits="userSpaceOnUse" x1="-212.189" y1="1680.141" x2="-211.191" y2="1680.141" gradientTransform="matrix(1 -68.996 -68.996 -1 116281.25 -12715.75)"><stop offset="0" stop-color="#fff"/><stop offset="1" stop-color="#E7E7E7"/></linearGradient><polygon clip-path="url(#bI)" fill="url(#bJ)" points="140.014,212.566 140.243,196.797 154.465,197.003 154.237,212.773"/><defs><path id="bK" d="M138.24 206.498v-12.146s-.39-2.352-3.707-3.352h-8.569s-.519.449-.724 1.14v11.544s.034.316.725.316h9.034s2.241.408 3.241 2.498"/></defs><linearGradient id="bL" gradientUnits="userSpaceOnUse" x1="125.24" y1="198.749" x2="138.24" y2="198.749"><stop offset="0" stop-color="#fff"/><stop offset="1" stop-color="#E7E7E7"/></linearGradient><use xlink:href="#bK" overflow="visible" fill="url(#bL)"/><clipPath id="bM"><use xlink:href="#bK" overflow="visible"/></clipPath><linearGradient id="bN" gradientUnits="userSpaceOnUse" x1="-212.194" y1="1680.137" x2="-211.192" y2="1680.137" gradientTransform="matrix(1 -69.002 -69.002 -1 116276.375 -12717.375)"><stop offset="0" stop-color="#fff"/><stop offset="1" stop-color="#E7E7E7"/></linearGradient><polygon clip-path="url(#bM)" fill="url(#bN)" points="125.015,206.494 125.243,190.812 138.464,191.003 138.237,206.687"/><defs><path id="bO" d="M140.24 229.875v-12.146s1.091-2.729 4.409-3.729h8.569s1.021.826 1.021 1.518v11.543s-.331.939-1.021.939h-9.035s-1.943-.214-3.943 1.875"/></defs><linearGradient id="bP" gradientUnits="userSpaceOnUse" x1="140.24" y1="221.938" x2="154.24" y2="221.938"><stop offset="0" stop-color="#fff"/><stop offset="1" stop-color="#E7E7E7"/></linearGradient><use xlink:href="#bO" overflow="visible" fill="url(#bP)"/><clipPath id="bQ"><use xlink:href="#bO" overflow="visible"/></clipPath><linearGradient id="bR" gradientUnits="userSpaceOnUse" x1="-212.192" y1="1680.127" x2="-211.19" y2="1680.127" gradientTransform="matrix(1 -68.998 -68.998 -1 116284.375 -12716.25)"><stop offset="0" stop-color="#fff"/><stop offset="1" stop-color="#E7E7E7"/></linearGradient><polygon clip-path="url(#bQ)" fill="url(#bR)" points="140.01,229.871 140.243,213.797 154.47,214.004 154.237,230.078"/><defs><path id="bS" d="M138.24 223.803v-12.146s-.39-2.656-3.707-2.656h-8.569s-.519-.246-.724.443v11.545s.034.012.725.012h9.034c0-.001 2.241.712 3.241 2.802"/></defs><linearGradient id="bT" gradientUnits="userSpaceOnUse" x1="125.24" y1="216.38" x2="138.24" y2="216.38"><stop offset="0" stop-color="#fff"/><stop offset="1" stop-color="#E7E7E7"/></linearGradient><use xlink:href="#bS" overflow="visible" fill="url(#bT)"/><clipPath id="bU"><use xlink:href="#bS" overflow="visible"/></clipPath><linearGradient id="bV" gradientUnits="userSpaceOnUse" x1="-212.194" y1="1680.133" x2="-211.196" y2="1680.133" gradientTransform="matrix(1 -69.002 -69.002 -1 116276.625 -12717.563)"><stop offset="0" stop-color="#fff"/><stop offset="1" stop-color="#E7E7E7"/></linearGradient><polygon clip-path="url(#bU)" fill="url(#bV)" points="125.021,223.8 125.243,208.566 138.458,208.758 138.237,223.991"/><defs><path id="bW" d="M140.24 247.18v-12.146s1.091-3.033 4.409-3.033h8.569s1.021.131 1.021.82v11.545s-.331.635-1.021.635h-9.035c0-.001-1.943.09-3.943 2.179"/></defs><linearGradient id="bX" gradientUnits="userSpaceOnUse" x1="140.24" y1="239.59" x2="154.24" y2="239.59"><stop offset="0" stop-color="#fff"/><stop offset="1" stop-color="#E7E7E7"/></linearGradient><use xlink:href="#bW" overflow="visible" fill="url(#bX)"/><clipPath id="bY"><use xlink:href="#bW" overflow="visible"/></clipPath><linearGradient id="bZ" gradientUnits="userSpaceOnUse" x1="-212.19" y1="1680.129" x2="-211.192" y2="1680.129" gradientTransform="matrix(1 -68.998 -68.998 -1 116284.75 -12716.188)"><stop offset="0" stop-color="#fff"/><stop offset="1" stop-color="#E7E7E7"/></linearGradient><polygon clip-path="url(#bY)" fill="url(#bZ)" points="140.02,247.177 140.243,231.797 154.459,232.003 154.237,247.383"/><defs><path id="ca" d="M138.24 241.107v-12.146s-.39-1.961-3.707-2.961h-8.569s-.519.059-.724.749v11.544s.034.707.725.707h9.034s2.241.018 3.241 2.107"/></defs><linearGradient id="cb" gradientUnits="userSpaceOnUse" x1="125.24" y1="233.554" x2="138.24" y2="233.554"><stop offset="0" stop-color="#fff"/><stop offset="1" stop-color="#E7E7E7"/></linearGradient><use xlink:href="#ca" overflow="visible" fill="url(#cb)"/><clipPath id="cc"><use xlink:href="#ca" overflow="visible"/></clipPath><linearGradient id="cd" gradientUnits="userSpaceOnUse" x1="-212.193" y1="1680.135" x2="-211.193" y2="1680.135" gradientTransform="matrix(1 -68.996 -68.996 -1 116265.688 -12716.188)"><stop offset="0" stop-color="#fff"/><stop offset="1" stop-color="#E7E7E7"/></linearGradient><polygon clip-path="url(#cc)" fill="url(#cd)" points="125.021,241.104 125.243,225.812 138.458,226.003 138.237,241.295"/><defs><path id="ce" d="M171.24 195.266v-12.146s1.091-3.119 4.409-3.119h8.569s1.021.217 1.021.908v11.543s-.331.549-1.021.549h-9.035c0-.001-1.943.175-3.943 2.265"/></defs><linearGradient id="cf" gradientUnits="userSpaceOnUse" x1="171.24" y1="187.633" x2="185.24" y2="187.633"><stop offset="0" stop-color="#fff"/><stop offset="1" stop-color="#E7E7E7"/></linearGradient><use xlink:href="#ce" overflow="visible" fill="url(#cf)"/><clipPath id="cg"><use xlink:href="#ce" overflow="visible"/></clipPath><linearGradient id="ch" gradientUnits="userSpaceOnUse" x1="-212.188" y1="1679.686" x2="-211.185" y2="1679.686" gradientTransform="matrix(1 -68.996 -68.996 -1 116280.688 -12715.938)"><stop offset="0" stop-color="#fff"/><stop offset="1" stop-color="#E7E7E7"/></linearGradient><polygon clip-path="url(#cg)" fill="url(#ch)" points="171.019,195.263 171.243,179.797 185.46,180.003 185.237,195.469"/><defs><path id="ci" d="M169.24 189.193v-12.146s-.39-2.41-3.707-3.047h-8.569s-.519.145-.724.834v11.545s.034.621.725.621h9.034s2.241.104 3.241 2.193"/></defs><linearGradient id="cj" gradientUnits="userSpaceOnUse" x1="156.24" y1="181.597" x2="169.24" y2="181.597"><stop offset="0" stop-color="#fff"/><stop offset="1" stop-color="#E7E7E7"/></linearGradient><use xlink:href="#ci" overflow="visible" fill="url(#cj)"/><clipPath id="ck"><use xlink:href="#ci" overflow="visible"/></clipPath><linearGradient id="cl" gradientUnits="userSpaceOnUse" x1="-212.177" y1="1679.688" x2="-211.177" y2="1679.688" gradientTransform="matrix(1 -69.004 -69.004 -1 116280.063 -12717.313)"><stop offset="0" stop-color="#fff"/><stop offset="1" stop-color="#E7E7E7"/></linearGradient><polygon clip-path="url(#ck)" fill="url(#cl)" points="156.02,189.189 156.243,173.812 169.46,174.003 169.237,189.381"/><defs><path id="cm" d="M171.24 212.57v-12.146s1.091-2.424 4.409-3.424h8.569s1.021.521 1.021 1.212v11.544s-.331 1.244-1.021 1.244h-9.035s-1.943-.52-3.943 1.57"/></defs><linearGradient id="cn" gradientUnits="userSpaceOnUse" x1="171.24" y1="204.785" x2="185.24" y2="204.785"><stop offset="0" stop-color="#fff"/><stop offset="1" stop-color="#E7E7E7"/></linearGradient><use xlink:href="#cm" overflow="visible" fill="url(#cn)"/><clipPath id="co"><use xlink:href="#cm" overflow="visible"/></clipPath><linearGradient id="cp" gradientUnits="userSpaceOnUse" x1="-212.182" y1="1679.691" x2="-211.184" y2="1679.691" gradientTransform="matrix(1 -68.996 -68.996 -1 116281.25 -12715.75)"><stop offset="0" stop-color="#fff"/><stop offset="1" stop-color="#E7E7E7"/></linearGradient><polygon clip-path="url(#co)" fill="url(#cp)" points="171.014,212.566 171.243,196.797 185.465,197.003 185.237,212.773"/><defs><path id="cq" d="M169.24 206.498v-12.146s-.39-2.352-3.707-3.352h-8.569s-.519.449-.724 1.14v11.544s.034.316.725.316h9.034s2.241.408 3.241 2.498"/></defs><linearGradient id="cr" gradientUnits="userSpaceOnUse" x1="156.24" y1="198.749" x2="169.24" y2="198.749"><stop offset="0" stop-color="#fff"/><stop offset="1" stop-color="#E7E7E7"/></linearGradient><use xlink:href="#cq" overflow="visible" fill="url(#cr)"/><clipPath id="cs"><use xlink:href="#cq" overflow="visible"/></clipPath><linearGradient id="ct" gradientUnits="userSpaceOnUse" x1="-212.186" y1="1679.688" x2="-211.186" y2="1679.688" gradientTransform="matrix(1 -69.002 -69.002 -1 116276.375 -12717.375)"><stop offset="0" stop-color="#fff"/><stop offset="1" stop-color="#E7E7E7"/></linearGradient><polygon clip-path="url(#cs)" fill="url(#ct)" points="156.015,206.494 156.243,190.812 169.464,191.003 169.237,206.687"/><defs><path id="cu" d="M171.24 229.875v-12.146s1.091-2.729 4.409-3.729h8.569s1.021.826 1.021 1.518v11.543s-.331.939-1.021.939h-9.035s-1.943-.214-3.943 1.875"/></defs><linearGradient id="cv" gradientUnits="userSpaceOnUse" x1="171.24" y1="221.938" x2="185.24" y2="221.938"><stop offset="0" stop-color="#fff"/><stop offset="1" stop-color="#E7E7E7"/></linearGradient><use xlink:href="#cu" overflow="visible" fill="url(#cv)"/><clipPath id="cw"><use xlink:href="#cu" overflow="visible"/></clipPath><linearGradient id="cx" gradientUnits="userSpaceOnUse" x1="-212.185" y1="1679.678" x2="-211.185" y2="1679.678" gradientTransform="matrix(1 -68.998 -68.998 -1 116284.375 -12716.25)"><stop offset="0" stop-color="#fff"/><stop offset="1" stop-color="#E7E7E7"/></linearGradient><polygon clip-path="url(#cw)" fill="url(#cx)" points="171.01,229.871 171.243,213.797 185.47,214.004 185.237,230.078"/><defs><path id="cy" d="M169.24 223.803v-12.146s-.39-2.656-3.707-2.656h-8.569s-.519-.246-.724.443v11.545s.034.012.725.012h9.034c0-.001 2.241.712 3.241 2.802"/></defs><linearGradient id="cz" gradientUnits="userSpaceOnUse" x1="156.24" y1="216.38" x2="169.24" y2="216.38"><stop offset="0" stop-color="#fff"/><stop offset="1" stop-color="#E7E7E7"/></linearGradient><use xlink:href="#cy" overflow="visible" fill="url(#cz)"/><clipPath id="cA"><use xlink:href="#cy" overflow="visible"/></clipPath><linearGradient id="cB" gradientUnits="userSpaceOnUse" x1="-212.188" y1="1679.684" x2="-211.19" y2="1679.684" gradientTransform="matrix(1 -69.002 -69.002 -1 116276.625 -12717.563)"><stop offset="0" stop-color="#fff"/><stop offset="1" stop-color="#E7E7E7"/></linearGradient><polygon clip-path="url(#cA)" fill="url(#cB)" points="156.021,223.8 156.243,208.566 169.458,208.758 169.237,223.991"/><defs><path id="cC" d="M171.24 247.18v-12.146s1.091-3.033 4.409-3.033h8.569s1.021.131 1.021.82v11.545s-.331.635-1.021.635h-9.035c0-.001-1.943.09-3.943 2.179"/></defs><linearGradient id="cD" gradientUnits="userSpaceOnUse" x1="171.24" y1="239.59" x2="185.24" y2="239.59"><stop offset="0" stop-color="#fff"/><stop offset="1" stop-color="#E7E7E7"/></linearGradient><use xlink:href="#cC" overflow="visible" fill="url(#cD)"/><clipPath id="cE"><use xlink:href="#cC" overflow="visible"/></clipPath><linearGradient id="cF" gradientUnits="userSpaceOnUse" x1="-212.183" y1="1679.68" x2="-211.183" y2="1679.68" gradientTransform="matrix(1 -68.998 -68.998 -1 116284.75 -12716.188)"><stop offset="0" stop-color="#fff"/><stop offset="1" stop-color="#E7E7E7"/></linearGradient><polygon clip-path="url(#cE)" fill="url(#cF)" points="171.02,247.177 171.243,231.797 185.459,232.003 185.237,247.383"/><defs><path id="cG" d="M169.24 241.107v-12.146s-.39-1.961-3.707-2.961h-8.569s-.519.059-.724.749v11.544s.034.707.725.707h9.034s2.241.018 3.241 2.107"/></defs><linearGradient id="cH" gradientUnits="userSpaceOnUse" x1="156.24" y1="233.554" x2="169.24" y2="233.554"><stop offset="0" stop-color="#fff"/><stop offset="1" stop-color="#E7E7E7"/></linearGradient><use xlink:href="#cG" overflow="visible" fill="url(#cH)"/><clipPath id="cI"><use xlink:href="#cG" overflow="visible"/></clipPath><linearGradient id="cJ" gradientUnits="userSpaceOnUse" x1="-212.187" y1="1679.686" x2="-211.187" y2="1679.686" gradientTransform="matrix(1 -68.996 -68.996 -1 116265.688 -12716.188)"><stop offset="0" stop-color="#fff"/><stop offset="1" stop-color="#E7E7E7"/></linearGradient><polygon clip-path="url(#cI)" fill="url(#cJ)" points="156.021,241.104 156.243,225.812 169.458,226.003 169.237,241.295"/><defs><path id="cK" d="M202.24 195.266v-12.146s1.091-3.119 4.409-3.119h8.569s1.021.217 1.021.908v11.543s-.331.549-1.021.549h-9.035c0-.001-1.943.175-3.943 2.265"/></defs><linearGradient id="cL" gradientUnits="userSpaceOnUse" x1="202.24" y1="187.633" x2="216.24" y2="187.633"><stop offset="0" stop-color="#fff"/><stop offset="1" stop-color="#E7E7E7"/></linearGradient><use xlink:href="#cK" overflow="visible" fill="url(#cL)"/><clipPath id="cM"><use xlink:href="#cK" overflow="visible"/></clipPath><linearGradient id="cN" gradientUnits="userSpaceOnUse" x1="-212.179" y1="1679.236" x2="-211.179" y2="1679.236" gradientTransform="matrix(1 -68.996 -68.996 -1 116280.688 -12715.938)"><stop offset="0" stop-color="#fff"/><stop offset="1" stop-color="#E7E7E7"/></linearGradient><polygon clip-path="url(#cM)" fill="url(#cN)" points="202.019,195.263 202.243,179.797 216.46,180.003 216.237,195.469"/><defs><path id="cO" d="M200.24 189.193v-12.146s-.39-2.41-3.707-3.047h-8.569s-.519.145-.724.834v11.545s.034.621.725.621h9.034s2.241.104 3.241 2.193"/></defs><linearGradient id="cP" gradientUnits="userSpaceOnUse" x1="187.24" y1="181.597" x2="200.24" y2="181.597"><stop offset="0" stop-color="#fff"/><stop offset="1" stop-color="#E7E7E7"/></linearGradient><use xlink:href="#cO" overflow="visible" fill="url(#cP)"/><clipPath id="cQ"><use xlink:href="#cO" overflow="visible"/></clipPath><linearGradient id="cR" gradientUnits="userSpaceOnUse" x1="-212.173" y1="1679.239" x2="-211.171" y2="1679.239" gradientTransform="matrix(1 -69.004 -69.004 -1 116280.063 -12717.313)"><stop offset="0" stop-color="#fff"/><stop offset="1" stop-color="#E7E7E7"/></linearGradient><polygon clip-path="url(#cQ)" fill="url(#cR)" points="187.02,189.189 187.243,173.812 200.46,174.003 200.237,189.381"/><defs><path id="cS" d="M202.24 212.57v-12.146s1.091-2.424 4.409-3.424h8.569s1.021.521 1.021 1.212v11.544s-.331 1.244-1.021 1.244h-9.035s-1.943-.52-3.943 1.57"/></defs><linearGradient id="cT" gradientUnits="userSpaceOnUse" x1="202.24" y1="204.785" x2="216.24" y2="204.785"><stop offset="0" stop-color="#fff"/><stop offset="1" stop-color="#E7E7E7"/></linearGradient><use xlink:href="#cS" overflow="visible" fill="url(#cT)"/><clipPath id="cU"><use xlink:href="#cS" overflow="visible"/></clipPath><linearGradient id="cV" gradientUnits="userSpaceOnUse" x1="-212.176" y1="1679.242" x2="-211.178" y2="1679.242" gradientTransform="matrix(1 -68.996 -68.996 -1 116281.25 -12715.75)"><stop offset="0" stop-color="#fff"/><stop offset="1" stop-color="#E7E7E7"/></linearGradient><polygon clip-path="url(#cU)" fill="url(#cV)" points="202.014,212.566 202.243,196.797 216.465,197.003 216.237,212.773"/><defs><path id="cW" d="M200.24 206.498v-12.146s-.39-2.352-3.707-3.352h-8.569s-.519.449-.724 1.14v11.544s.034.316.725.316h9.034s2.241.408 3.241 2.498"/></defs><linearGradient id="cX" gradientUnits="userSpaceOnUse" x1="187.24" y1="198.749" x2="200.24" y2="198.749"><stop offset="0" stop-color="#fff"/><stop offset="1" stop-color="#E7E7E7"/></linearGradient><use xlink:href="#cW" overflow="visible" fill="url(#cX)"/><clipPath id="cY"><use xlink:href="#cW" overflow="visible"/></clipPath><linearGradient id="cZ" gradientUnits="userSpaceOnUse" x1="-212.181" y1="1679.238" x2="-211.179" y2="1679.238" gradientTransform="matrix(1 -69.002 -69.002 -1 116276.375 -12717.375)"><stop offset="0" stop-color="#fff"/><stop offset="1" stop-color="#E7E7E7"/></linearGradient><polygon clip-path="url(#cY)" fill="url(#cZ)" points="187.015,206.494 187.243,190.812 200.464,191.003 200.237,206.687"/><defs><path id="da" d="M202.24 229.875v-12.146s1.091-2.729 4.409-3.729h8.569s1.021.826 1.021 1.518v11.543s-.331.939-1.021.939h-9.035s-1.943-.214-3.943 1.875"/></defs><linearGradient id="db" gradientUnits="userSpaceOnUse" x1="202.24" y1="221.938" x2="216.24" y2="221.938"><stop offset="0" stop-color="#fff"/><stop offset="1" stop-color="#E7E7E7"/></linearGradient><use xlink:href="#da" overflow="visible" fill="url(#db)"/><clipPath id="dc"><use xlink:href="#da" overflow="visible"/></clipPath><linearGradient id="dd" gradientUnits="userSpaceOnUse" x1="-212.178" y1="1679.228" x2="-211.178" y2="1679.228" gradientTransform="matrix(1 -68.998 -68.998 -1 116284.375 -12716.25)"><stop offset="0" stop-color="#fff"/><stop offset="1" stop-color="#E7E7E7"/></linearGradient><polygon clip-path="url(#dc)" fill="url(#dd)" points="202.01,229.871 202.243,213.797 216.47,214.004 216.237,230.078"/><defs><path id="de" d="M200.24 223.803v-12.146s-.39-2.656-3.707-2.656h-8.569s-.519-.246-.724.443v11.545s.034.012.725.012h9.034c0-.001 2.241.712 3.241 2.802"/></defs><linearGradient id="df" gradientUnits="userSpaceOnUse" x1="187.24" y1="216.38" x2="200.24" y2="216.38"><stop offset="0" stop-color="#fff"/><stop offset="1" stop-color="#E7E7E7"/></linearGradient><use xlink:href="#de" overflow="visible" fill="url(#df)"/><clipPath id="dg"><use xlink:href="#de" overflow="visible"/></clipPath><linearGradient id="dh" gradientUnits="userSpaceOnUse" x1="-212.181" y1="1679.234" x2="-211.183" y2="1679.234" gradientTransform="matrix(1 -69.002 -69.002 -1 116276.625 -12717.563)"><stop offset="0" stop-color="#fff"/><stop offset="1" stop-color="#E7E7E7"/></linearGradient><polygon clip-path="url(#dg)" fill="url(#dh)" points="187.021,223.8 187.243,208.566 200.458,208.758 200.237,223.991"/><defs><path id="di" d="M202.24 247.18v-12.146s1.091-3.033 4.409-3.033h8.569s1.021.131 1.021.82v11.545s-.331.635-1.021.635h-9.035c0-.001-1.943.09-3.943 2.179"/></defs><linearGradient id="dj" gradientUnits="userSpaceOnUse" x1="202.24" y1="239.59" x2="216.24" y2="239.59"><stop offset="0" stop-color="#fff"/><stop offset="1" stop-color="#E7E7E7"/></linearGradient><use xlink:href="#di" overflow="visible" fill="url(#dj)"/><clipPath id="dk"><use xlink:href="#di" overflow="visible"/></clipPath><linearGradient id="dl" gradientUnits="userSpaceOnUse" x1="-212.176" y1="1679.23" x2="-211.179" y2="1679.23" gradientTransform="matrix(1 -68.998 -68.998 -1 116284.75 -12716.188)"><stop offset="0" stop-color="#fff"/><stop offset="1" stop-color="#E7E7E7"/></linearGradient><polygon clip-path="url(#dk)" fill="url(#dl)" points="202.02,247.177 202.243,231.797 216.459,232.003 216.237,247.383"/><defs><path id="dm" d="M200.24 241.107v-12.146s-.39-1.961-3.707-2.961h-8.569s-.519.059-.724.749v11.544s.034.707.725.707h9.034s2.241.018 3.241 2.107"/></defs><linearGradient id="dn" gradientUnits="userSpaceOnUse" x1="187.24" y1="233.554" x2="200.24" y2="233.554"><stop offset="0" stop-color="#fff"/><stop offset="1" stop-color="#E7E7E7"/></linearGradient><use xlink:href="#dm" overflow="visible" fill="url(#dn)"/><clipPath id="do"><use xlink:href="#dm" overflow="visible"/></clipPath><linearGradient id="dp" gradientUnits="userSpaceOnUse" x1="-212.18" y1="1679.236" x2="-211.18" y2="1679.236" gradientTransform="matrix(1 -68.996 -68.996 -1 116265.688 -12716.188)"><stop offset="0" stop-color="#fff"/><stop offset="1" stop-color="#E7E7E7"/></linearGradient><polygon clip-path="url(#do)" fill="url(#dp)" points="187.021,241.104 187.243,225.812 200.458,226.003 200.237,241.295"/><defs><path id="dq" d="M233.24 195.266v-12.146s1.091-3.119 4.409-3.119h8.569s1.021.217 1.021.908v11.543s-.331.549-1.021.549h-9.035c0-.001-1.943.175-3.943 2.265"/></defs><linearGradient id="dr" gradientUnits="userSpaceOnUse" x1="233.24" y1="187.633" x2="247.24" y2="187.633"><stop offset="0" stop-color="#fff"/><stop offset="1" stop-color="#E7E7E7"/></linearGradient><use xlink:href="#dq" overflow="visible" fill="url(#dr)"/><clipPath id="ds"><use xlink:href="#dq" overflow="visible"/></clipPath><linearGradient id="dt" gradientUnits="userSpaceOnUse" x1="-212.173" y1="1678.787" x2="-211.173" y2="1678.787" gradientTransform="matrix(1 -68.996 -68.996 -1 116280.688 -12715.938)"><stop offset="0" stop-color="#fff"/><stop offset="1" stop-color="#E7E7E7"/></linearGradient><polygon clip-path="url(#ds)" fill="url(#dt)" points="233.019,195.263 233.243,179.797 247.46,180.003 247.237,195.469"/><defs><path id="du" d="M231.24 189.193v-12.146s-.39-2.41-3.707-3.047h-8.569s-.519.145-.724.834v11.545s.034.621.725.621h9.034s2.241.104 3.241 2.193"/></defs><linearGradient id="dv" gradientUnits="userSpaceOnUse" x1="218.24" y1="181.597" x2="231.24" y2="181.597"><stop offset="0" stop-color="#fff"/><stop offset="1" stop-color="#E7E7E7"/></linearGradient><use xlink:href="#du" overflow="visible" fill="url(#dv)"/><clipPath id="dw"><use xlink:href="#du" overflow="visible"/></clipPath><linearGradient id="dx" gradientUnits="userSpaceOnUse" x1="-212.164" y1="1678.79" x2="-211.164" y2="1678.79" gradientTransform="matrix(1 -69.004 -69.004 -1 116280.063 -12717.313)"><stop offset="0" stop-color="#fff"/><stop offset="1" stop-color="#E7E7E7"/></linearGradient><polygon clip-path="url(#dw)" fill="url(#dx)" points="218.02,189.189 218.243,173.812 231.46,174.003 231.237,189.381"/><defs><path id="dy" d="M233.24 212.57v-12.146s1.091-2.424 4.409-3.424h8.569s1.021.521 1.021 1.212v11.544s-.331 1.244-1.021 1.244h-9.035s-1.943-.52-3.943 1.57"/></defs><linearGradient id="dz" gradientUnits="userSpaceOnUse" x1="233.24" y1="204.785" x2="247.24" y2="204.785"><stop offset="0" stop-color="#fff"/><stop offset="1" stop-color="#E7E7E7"/></linearGradient><use xlink:href="#dy" overflow="visible" fill="url(#dz)"/><clipPath id="dA"><use xlink:href="#dy" overflow="visible"/></clipPath><linearGradient id="dB" gradientUnits="userSpaceOnUse" x1="-212.169" y1="1678.793" x2="-211.171" y2="1678.793" gradientTransform="matrix(1 -68.996 -68.996 -1 116281.25 -12715.75)"><stop offset="0" stop-color="#fff"/><stop offset="1" stop-color="#E7E7E7"/></linearGradient><polygon clip-path="url(#dA)" fill="url(#dB)" points="233.014,212.566 233.243,196.797 247.465,197.003 247.237,212.773"/><defs><path id="dC" d="M231.24 206.498v-12.146s-.39-2.352-3.707-3.352h-8.569s-.519.449-.724 1.14v11.544s.034.316.725.316h9.034s2.241.408 3.241 2.498"/></defs><linearGradient id="dD" gradientUnits="userSpaceOnUse" x1="218.24" y1="198.749" x2="231.24" y2="198.749"><stop offset="0" stop-color="#fff"/><stop offset="1" stop-color="#E7E7E7"/></linearGradient><use xlink:href="#dC" overflow="visible" fill="url(#dD)"/><clipPath id="dE"><use xlink:href="#dC" overflow="visible"/></clipPath><linearGradient id="dF" gradientUnits="userSpaceOnUse" x1="-212.174" y1="1678.789" x2="-211.172" y2="1678.789" gradientTransform="matrix(1 -69.002 -69.002 -1 116276.375 -12717.375)"><stop offset="0" stop-color="#fff"/><stop offset="1" stop-color="#E7E7E7"/></linearGradient><polygon clip-path="url(#dE)" fill="url(#dF)" points="218.015,206.494 218.243,190.812 231.464,191.003 231.237,206.687"/><defs><path id="dG" d="M233.24 229.875v-12.146s1.091-2.729 4.409-3.729h8.569s1.021.826 1.021 1.518v11.543s-.331.939-1.021.939h-9.035s-1.943-.214-3.943 1.875"/></defs><linearGradient id="dH" gradientUnits="userSpaceOnUse" x1="233.24" y1="221.938" x2="247.24" y2="221.938"><stop offset="0" stop-color="#fff"/><stop offset="1" stop-color="#E7E7E7"/></linearGradient><use xlink:href="#dG" overflow="visible" fill="url(#dH)"/><clipPath id="dI"><use xlink:href="#dG" overflow="visible"/></clipPath><linearGradient id="dJ" gradientUnits="userSpaceOnUse" x1="-212.172" y1="1678.779" x2="-211.17" y2="1678.779" gradientTransform="matrix(1 -68.998 -68.998 -1 116284.375 -12716.25)"><stop offset="0" stop-color="#fff"/><stop offset="1" stop-color="#E7E7E7"/></linearGradient><polygon clip-path="url(#dI)" fill="url(#dJ)" points="233.01,229.871 233.243,213.797 247.47,214.004 247.237,230.078"/><defs><path id="dK" d="M231.24 223.803v-12.146s-.39-2.656-3.707-2.656h-8.569s-.519-.246-.724.443v11.545s.034.012.725.012h9.034c0-.001 2.241.712 3.241 2.802"/></defs><linearGradient id="dL" gradientUnits="userSpaceOnUse" x1="218.24" y1="216.38" x2="231.24" y2="216.38"><stop offset="0" stop-color="#fff"/><stop offset="1" stop-color="#E7E7E7"/></linearGradient><use xlink:href="#dK" overflow="visible" fill="url(#dL)"/><clipPath id="dM"><use xlink:href="#dK" overflow="visible"/></clipPath><linearGradient id="dN" gradientUnits="userSpaceOnUse" x1="-212.175" y1="1678.785" x2="-211.177" y2="1678.785" gradientTransform="matrix(1 -69.002 -69.002 -1 116276.625 -12717.563)"><stop offset="0" stop-color="#fff"/><stop offset="1" stop-color="#E7E7E7"/></linearGradient><polygon clip-path="url(#dM)" fill="url(#dN)" points="218.021,223.8 218.243,208.566 231.458,208.758 231.237,223.991"/><defs><path id="dO" d="M233.24 247.18v-12.146s1.091-3.033 4.409-3.033h8.569s1.021.131 1.021.82v11.545s-.331.635-1.021.635h-9.035c0-.001-1.943.09-3.943 2.179"/></defs><linearGradient id="dP" gradientUnits="userSpaceOnUse" x1="233.24" y1="239.59" x2="247.24" y2="239.59"><stop offset="0" stop-color="#fff"/><stop offset="1" stop-color="#E7E7E7"/></linearGradient><use xlink:href="#dO" overflow="visible" fill="url(#dP)"/><clipPath id="dQ"><use xlink:href="#dO" overflow="visible"/></clipPath><linearGradient id="dR" gradientUnits="userSpaceOnUse" x1="-212.17" y1="1678.781" x2="-211.172" y2="1678.781" gradientTransform="matrix(1 -68.998 -68.998 -1 116284.75 -12716.188)"><stop offset="0" stop-color="#fff"/><stop offset="1" stop-color="#E7E7E7"/></linearGradient><polygon clip-path="url(#dQ)" fill="url(#dR)" points="233.02,247.177 233.243,231.797 247.459,232.003 247.237,247.383"/><defs><path id="dS" d="M231.24 241.107v-12.146s-.39-1.961-3.707-2.961h-8.569s-.519.059-.724.749v11.544s.034.707.725.707h9.034s2.241.018 3.241 2.107"/></defs><linearGradient id="dT" gradientUnits="userSpaceOnUse" x1="218.24" y1="233.554" x2="231.24" y2="233.554"><stop offset="0" stop-color="#fff"/><stop offset="1" stop-color="#E7E7E7"/></linearGradient><use xlink:href="#dS" overflow="visible" fill="url(#dT)"/><clipPath id="dU"><use xlink:href="#dS" overflow="visible"/></clipPath><linearGradient id="dV" gradientUnits="userSpaceOnUse" x1="-212.174" y1="1678.787" x2="-211.174" y2="1678.787" gradientTransform="matrix(1 -68.996 -68.996 -1 116265.688 -12716.188)"><stop offset="0" stop-color="#fff"/><stop offset="1" stop-color="#E7E7E7"/></linearGradient><polygon clip-path="url(#dU)" fill="url(#dV)" points="218.021,241.104 218.243,225.812 231.458,226.003 231.237,241.295"/><path fill="#fff" d="M15.534 80.59h2.13c.14 0 .253-.115.253-.249 0-.141-.113-.255-.253-.255h-2.13c-.136 0-.252.114-.252.255 0 .134.116.249.252.249zm1.064 18.672c-.609 0-1.106.498-1.106 1.109s.497 1.107 1.106 1.107c.613 0 1.109-.496 1.109-1.107s-.496-1.109-1.109-1.109zm-5.435-.95h10.873v-16.082h-10.873v16.082zm34.862-5.28c-.516 0-.98.17-1.401.511-.421.347-.693.796-.823 1.351-.063.26-.096.471-.096.639v1.566c0 .686.206 1.264.629 1.734.418.467.965.704 1.634.704.785 0 1.403-.302 1.841-.909.438-.605.655-1.406.655-2.402 0-.914-.203-1.67-.616-2.262-.454-.618-1.06-.932-1.823-.932zm38.132-.131c-.835 0-1.476.371-1.911 1.119-.379.615-.564 1.365-.564 2.254 0 .865.186 1.604.564 2.221.446.746 1.08 1.117 1.896 1.117.795 0 1.424-.377 1.872-1.141.391-.625.584-1.373.584-2.233s-.187-1.603-.558-2.218c-.444-.748-1.067-1.119-1.883-1.119zm-27.793.131c-.519 0-.981.17-1.402.511-.419.347-.694.796-.825 1.351-.064.26-.094.471-.094.639v1.566c0 .686.206 1.264.627 1.734.419.467.965.704 1.633.704.792 0 1.403-.302 1.843-.909.44-.605.659-1.406.659-2.402 0-.914-.207-1.67-.619-2.262-.455-.618-1.062-.932-1.822-.932zm-21.602-3.366h-.037c-.131.555-.334 1.372-.621 2.458l-1.084 3.408h3.502l-1.099-3.408c-.118-.35-.34-1.17-.661-2.458zm65.251 3.133c-.683 0-1.237.291-1.664.855-.349.449-.557.992-.619 1.621h4.354c.011-.617-.121-1.15-.405-1.604-.363-.577-.919-.872-1.666-.872zm-56.032-9.283c.028-.09.028-.18.028-.27v-.666c-.865-.01-1.69.169-1.69.905 0 .478.309.696.696.696.498.001.846-.318.966-.665zm-11.407-3.046c-.131-.408-.239-.866-.338-1.253h-.021c-.099.388-.209.855-.318 1.253l-.517 1.652h1.722l-.528-1.652zm69.368-.477c1.572 0 2.09 1.293 2.09 2.357 0 .229-.02.409-.04.518h-3.243c.029.876.706 1.254 1.492 1.254.566 0 .966-.089 1.344-.219l.178.836c-.418.179-.993.308-1.69.308-1.571 0-2.498-.964-2.498-2.447-.001-1.344.816-2.607 2.367-2.607zm-19.419.11l.059.727h.031c.218-.379.746-.836 1.552-.836.846 0 1.722.547 1.722 2.079v2.875h-1.224v-2.737c0-.695-.26-1.224-.926-1.224-.487 0-.826.349-.956.717-.04.1-.059.249-.059.389v2.855h-1.225v-3.402c0-.558-.02-1.025-.039-1.443h1.065zm-12.851-.11c1.572 0 2.09 1.293 2.09 2.357 0 .229-.021.409-.04.518h-3.243c.029.876.706 1.254 1.491 1.254.567 0 .965-.089 1.344-.219l.179.836c-.417.179-.994.308-1.691.308-1.571 0-2.497-.964-2.497-2.447-.001-1.344.814-2.607 2.367-2.607zm-5.016-2.109h1.224v7.064h-1.224v-7.064zm-9.705 2.974c-.479 0-.976.149-1.304.358l-.239-.796c.358-.219.985-.427 1.751-.427 1.553 0 2 .985 2 2.049v1.742c0 .438.021.866.079 1.164h-1.104l-.088-.537h-.03c-.289.378-.797.647-1.433.647-.976 0-1.523-.707-1.523-1.443 0-1.214 1.085-1.84 2.876-1.83v-.08c0-.319-.13-.847-.985-.847zm-7.236-2.776c.417 0 .677.289.686.667 0 .358-.269.657-.695.657-.409 0-.677-.299-.677-.657-.001-.378.278-.667.686-.667zm.606 2.021v4.845h-1.224v-4.845h1.224zm-16.832-1.862h1.562l2.178 6.707h-1.322l-.607-1.901h-2.119l-.578 1.901h-1.264l2.15-6.707zm-8.149 22.238c0 1.182-.964 2.139-2.145 2.139h-9.189c-1.183 0-2.146-.957-2.146-2.139v-20.421c0-1.182.964-2.142 2.146-2.142h9.189c1.181 0 2.145.96 2.145 2.142v20.421zm14.771.49l-1.218-3.83h-4.241l-1.162 3.83h-2.166l4.196-13.046h2.597l4.222 13.046h-2.228zm.475-16.021h-1.204l-1.802-4.845h1.325l.784 2.457c.14.429.239.816.329 1.215h.03c.09-.398.199-.777.328-1.215l.775-2.457h1.284l-1.849 4.845zm2.519-1.334c0-1.214 1.084-1.84 2.876-1.83v-.08c0-.318-.131-.846-.985-.846-.478 0-.976.149-1.304.358l-.238-.796c.357-.219.984-.427 1.751-.427 1.552 0 2 .985 2 2.049v1.742c0 .438.02.866.079 1.164h-1.105l-.088-.537h-.03c-.288.378-.797.647-1.433.647-.975 0-1.523-.707-1.523-1.444zm8.186 16.332c-.777.823-1.746 1.236-2.899 1.236-1.249 0-2.143-.444-2.687-1.338v4.94h-2.088v-10.131c0-1.006-.027-2.035-.081-3.092h1.839l.116 1.49h.036c.7-1.119 1.757-1.68 3.178-1.68 1.11 0 2.034.436 2.78 1.315.739.876 1.111 2.033 1.111 3.464.001 1.606-.433 2.866-1.305 3.796zm2.175-14.998h-1.224v-7.064h1.224v7.064zm8.16 14.998c-.779.823-1.744 1.236-2.899 1.236-1.245 0-2.141-.444-2.684-1.338v4.94h-2.092v-10.131c0-1.006-.026-2.035-.077-3.092h1.834l.121 1.49h.036c.701-1.119 1.756-1.68 3.175-1.68 1.11 0 2.037.436 2.778 1.315.744.876 1.114 2.033 1.114 3.464.001 1.606-.434 2.866-1.306 3.796zm1.436-14.888c-.628 0-1.185-.239-1.533-.836h-.02l-.06.726h-1.046c.021-.328.041-.865.041-1.363v-5.701h1.223v2.885h.021c.298-.467.825-.775 1.552-.775 1.185 0 2.029.985 2.02 2.457 0 1.741-1.104 2.607-2.198 2.607zm10.522 14.962c-.854.762-2.037 1.141-3.556 1.141-1.405 0-2.531-.271-3.38-.811l.485-1.742c.916.539 1.921.812 3.016.812.791 0 1.402-.18 1.842-.531.436-.354.655-.828.655-1.43 0-.521-.181-.967-.54-1.33-.364-.361-.96-.693-1.8-1.006-2.281-.85-3.425-2.096-3.425-3.733 0-1.072.399-1.951 1.206-2.635.807-.682 1.875-1.025 3.206-1.025 1.187 0 2.174.208 2.963.618l-.528 1.704c-.735-.398-1.571-.601-2.504-.601-.736 0-1.314.188-1.73.54-.347.327-.521.721-.521 1.185 0 .512.2.94.6 1.28.349.309.981.643 1.895 1.004 1.126.447 1.95.98 2.48 1.59.528.605.794 1.358.794 2.26-.001 1.11-.389 2.017-1.158 2.71zm7.37-6.893h-2.308v4.574c0 1.159.409 1.734 1.224 1.734.374 0 .681-.027.928-.09l.06 1.583c-.414.155-.955.233-1.626.233-.822 0-1.472-.248-1.935-.756-.469-.5-.7-1.348-.7-2.534v-4.745h-1.372v-1.566h1.372v-1.722l2.05-.62v2.341h2.308v1.568zm-1.179-8.069c-1.364 0-2.429-.936-2.429-2.498 0-1.592 1.045-2.566 2.508-2.566 1.442 0 2.408 1.015 2.408 2.487.001 1.781-1.254 2.577-2.487 2.577zm9.755 14.694c-.867.953-2.016 1.43-3.445 1.43-1.383 0-2.486-.457-3.305-1.373s-1.227-2.074-1.227-3.467c0-1.457.421-2.65 1.267-3.58.847-.932 1.981-1.391 3.414-1.391 1.386 0 2.494.455 3.334 1.375.797.885 1.197 2.037 1.197 3.442.001 1.451-.409 2.633-1.235 3.564zm2.16-19.649h.687v-.906l1.204-.338v1.244h1.163v.915h-1.163v2.139c0 .598.159.896.626.896.219 0 .339-.011.479-.05l.021.925c-.181.069-.509.13-.886.13-.458 0-.827-.149-1.055-.398-.27-.278-.389-.727-.389-1.363v-2.278h-.687v-.916zm5.367 13.296c-.206-.037-.428-.053-.658-.053-.736 0-1.302.277-1.704.831-.349.491-.522 1.103-.522 1.856v4.936h-2.09v-6.449c0-1.078-.019-2.064-.057-2.959h1.819l.078 1.801h.058c.218-.617.565-1.115 1.044-1.486.465-.34.972-.502 1.512-.502.193 0 .368.01.521.035v1.99zm.316-11.357v2.906h-1.223v-7.064h1.223v2.875h.02c.149-.229.359-.418.607-.547.249-.14.537-.219.846-.219.826 0 1.692.547 1.692 2.1v2.855h-1.225v-2.726c0-.696-.259-1.234-.935-1.234-.478 0-.816.319-.955.688-.039.108-.05.237-.05.366zm8.629 14.73h-6.272c.024.93.327 1.636.91 2.125.527.44 1.211.66 2.051.66.931 0 1.774-.148 2.535-.449l.33 1.454c-.888.39-1.941.579-3.157.579-1.456 0-2.602-.426-3.434-1.285-.831-.857-1.251-2.01-1.251-3.453 0-1.422.39-2.6 1.162-3.547.816-1.005 1.913-1.506 3.291-1.506 1.359 0 2.384.501 3.079 1.506.552.803.831 1.791.831 2.967 0 .371-.026.687-.075.949zm-43.209-15.824c-.497 0-.955.358-1.085.896-.02.09-.04.199-.04.319v.786l.03.29c.13.496.558.855 1.084.855.768 0 1.234-.607 1.234-1.592.001-.857-.407-1.554-1.223-1.554zm8.809-.119c-.756 0-1.074.687-1.123 1.184h2.129c.008-.449-.19-1.184-1.006-1.184zm8.222.049c-.866 0-1.214.846-1.214 1.651 0 .936.468 1.643 1.204 1.643.696 0 1.184-.677 1.184-1.662 0-.756-.338-1.632-1.174-1.632zm-23.551 2.607c0 .478.31.696.696.696.498 0 .847-.318.966-.666.029-.09.029-.18.029-.27v-.665c-.864-.01-1.691.169-1.691.905zm47.6-2.656c-.756 0-1.074.687-1.124 1.184h2.129c.011-.449-.19-1.184-1.005-1.184z"/><path fill="#fff" d="M108.477 110.522h-103.015c-3.012 0-5.462-2.447-5.462-5.455v-29.605c0-3.012 2.45-5.462 5.462-5.462h103.015c3.012 0 5.462 2.45 5.462 5.462v29.604c-.001 3.009-2.451 5.456-5.462 5.456zm-103.015-39.108c-2.232 0-4.048 1.816-4.048 4.048v29.604c0 2.229 1.815 4.041 4.048 4.041h103.015c2.231 0 4.048-1.812 4.048-4.041v-29.604c0-2.232-1.816-4.048-4.048-4.048h-103.015z"/><path opacity=".5" d="M112.969 146.949c0 2.658-2.201 4.812-4.915 4.812h-102.17c-2.714 0-4.915-2.154-4.915-4.812v-29.375c0-2.658 2.201-4.812 4.915-4.812h102.17c2.714 0 4.915 2.154 4.915 4.812v29.375z"/><path fill="#fff" d="M15.534 122.59h2.13c.14 0 .253-.115.253-.249 0-.141-.113-.255-.253-.255h-2.13c-.136 0-.252.114-.252.255 0 .134.116.249.252.249zm1.064 18.672c-.609 0-1.106.498-1.106 1.109s.497 1.107 1.106 1.107c.613 0 1.109-.496 1.109-1.107s-.496-1.109-1.109-1.109zm-5.435-.95h10.873v-16.082h-10.873v16.082zm34.862-5.28c-.516 0-.98.17-1.401.511-.421.347-.693.796-.823 1.351-.063.26-.096.471-.096.639v1.566c0 .686.206 1.264.629 1.734.418.467.965.704 1.634.704.785 0 1.403-.302 1.841-.909.438-.605.655-1.406.655-2.402 0-.914-.203-1.67-.616-2.262-.454-.618-1.06-.932-1.823-.932zm38.132-.131c-.835 0-1.476.371-1.911 1.119-.379.615-.564 1.365-.564 2.254 0 .865.186 1.604.564 2.221.446.746 1.08 1.117 1.896 1.117.795 0 1.424-.377 1.872-1.141.391-.625.584-1.373.584-2.233s-.187-1.603-.558-2.218c-.444-.748-1.067-1.119-1.883-1.119zm-27.793.131c-.519 0-.981.17-1.402.511-.419.347-.694.796-.825 1.351-.064.26-.094.471-.094.639v1.566c0 .686.206 1.264.627 1.734.419.467.965.704 1.633.704.792 0 1.403-.302 1.843-.909.44-.605.659-1.406.659-2.402 0-.914-.207-1.67-.619-2.262-.455-.618-1.062-.932-1.822-.932zm-21.602-3.366h-.037c-.131.555-.334 1.372-.621 2.458l-1.084 3.408h3.502l-1.099-3.408c-.118-.35-.34-1.17-.661-2.458zm65.251 3.133c-.683 0-1.237.291-1.664.855-.349.449-.557.992-.619 1.621h4.354c.011-.617-.121-1.15-.405-1.604-.363-.577-.919-.872-1.666-.872zm-56.032-9.283c.028-.09.028-.18.028-.27v-.666c-.865-.01-1.69.169-1.69.905 0 .478.309.696.696.696.498.001.846-.318.966-.665zm-11.407-3.046c-.131-.408-.239-.866-.338-1.253h-.021c-.099.388-.209.855-.318 1.253l-.517 1.652h1.722l-.528-1.652zm69.368-.477c1.572 0 2.09 1.293 2.09 2.357 0 .229-.02.409-.04.518h-3.243c.029.876.706 1.254 1.492 1.254.566 0 .966-.089 1.344-.219l.178.836c-.418.179-.993.308-1.69.308-1.571 0-2.498-.964-2.498-2.447-.001-1.344.816-2.607 2.367-2.607zm-19.419.11l.059.727h.031c.218-.379.746-.836 1.552-.836.846 0 1.722.547 1.722 2.079v2.875h-1.224v-2.737c0-.695-.26-1.224-.926-1.224-.487 0-.826.349-.956.717-.04.1-.059.249-.059.389v2.855h-1.225v-3.402c0-.558-.02-1.025-.039-1.443h1.065zm-12.851-.11c1.572 0 2.09 1.293 2.09 2.357 0 .229-.021.409-.04.518h-3.243c.029.876.706 1.254 1.491 1.254.567 0 .965-.089 1.344-.219l.179.836c-.417.179-.994.308-1.691.308-1.571 0-2.497-.964-2.497-2.447-.001-1.344.814-2.607 2.367-2.607zm-5.016-2.109h1.224v7.064h-1.224v-7.064zm-9.705 2.974c-.479 0-.976.149-1.304.358l-.239-.796c.358-.219.985-.427 1.751-.427 1.553 0 2 .985 2 2.049v1.742c0 .438.021.866.079 1.164h-1.104l-.088-.537h-.03c-.289.378-.797.647-1.433.647-.976 0-1.523-.707-1.523-1.443 0-1.214 1.085-1.84 2.876-1.83v-.08c0-.319-.13-.847-.985-.847zm-7.236-2.776c.417 0 .677.289.686.667 0 .358-.269.657-.695.657-.409 0-.677-.299-.677-.657-.001-.378.278-.667.686-.667zm.606 2.021v4.845h-1.224v-4.845h1.224zm-16.832-1.862h1.562l2.178 6.707h-1.322l-.607-1.901h-2.119l-.578 1.901h-1.264l2.15-6.707zm-8.149 22.238c0 1.182-.964 2.139-2.145 2.139h-9.189c-1.183 0-2.146-.957-2.146-2.139v-20.421c0-1.182.964-2.142 2.146-2.142h9.189c1.181 0 2.145.96 2.145 2.142v20.421zm14.771.49l-1.218-3.83h-4.241l-1.162 3.83h-2.166l4.196-13.046h2.597l4.222 13.046h-2.228zm.475-16.021h-1.204l-1.802-4.845h1.325l.784 2.457c.14.429.239.816.329 1.215h.03c.09-.398.199-.777.328-1.215l.775-2.457h1.284l-1.849 4.845zm2.519-1.334c0-1.214 1.084-1.84 2.876-1.83v-.08c0-.318-.131-.846-.985-.846-.478 0-.976.149-1.304.358l-.238-.796c.357-.219.984-.427 1.751-.427 1.552 0 2 .985 2 2.049v1.742c0 .438.02.866.079 1.164h-1.105l-.088-.537h-.03c-.288.378-.797.647-1.433.647-.975 0-1.523-.707-1.523-1.444zm8.186 16.332c-.777.823-1.746 1.236-2.899 1.236-1.249 0-2.143-.444-2.687-1.338v4.94h-2.088v-10.132c0-1.006-.027-2.035-.081-3.092h1.839l.116 1.49h.036c.7-1.119 1.757-1.68 3.178-1.68 1.11 0 2.034.436 2.78 1.315.739.876 1.111 2.033 1.111 3.464.001 1.607-.433 2.867-1.305 3.797zm2.175-14.998h-1.224v-7.064h1.224v7.064zm8.16 14.998c-.779.823-1.744 1.236-2.899 1.236-1.245 0-2.141-.444-2.684-1.338v4.94h-2.092v-10.132c0-1.006-.026-2.035-.077-3.092h1.834l.121 1.49h.036c.701-1.119 1.756-1.68 3.175-1.68 1.11 0 2.037.436 2.778 1.315.744.876 1.114 2.033 1.114 3.464.001 1.607-.434 2.867-1.306 3.797zm1.436-14.888c-.628 0-1.185-.239-1.533-.836h-.02l-.06.726h-1.046c.021-.328.041-.865.041-1.363v-5.701h1.223v2.885h.021c.298-.467.825-.775 1.552-.775 1.185 0 2.029.985 2.02 2.457 0 1.741-1.104 2.607-2.198 2.607zm10.522 14.962c-.854.762-2.037 1.141-3.556 1.141-1.405 0-2.531-.271-3.38-.811l.485-1.742c.916.539 1.921.812 3.016.812.791 0 1.402-.18 1.842-.531.436-.354.655-.828.655-1.43 0-.521-.181-.967-.54-1.33-.364-.361-.96-.693-1.8-1.006-2.281-.85-3.425-2.096-3.425-3.733 0-1.072.399-1.951 1.206-2.635.807-.682 1.875-1.025 3.206-1.025 1.187 0 2.174.208 2.963.618l-.528 1.704c-.735-.398-1.571-.601-2.504-.601-.736 0-1.314.188-1.73.54-.347.327-.521.721-.521 1.185 0 .512.2.94.6 1.28.349.309.981.643 1.895 1.004 1.126.447 1.95.98 2.48 1.59.528.605.794 1.358.794 2.26-.001 1.11-.389 2.017-1.158 2.71zm7.37-6.893h-2.308v4.574c0 1.159.409 1.734 1.224 1.734.374 0 .681-.027.928-.09l.06 1.583c-.414.155-.955.233-1.626.233-.822 0-1.472-.248-1.935-.756-.469-.5-.7-1.348-.7-2.534v-4.745h-1.372v-1.566h1.372v-1.722l2.05-.62v2.341h2.308v1.568zm-1.179-8.069c-1.364 0-2.429-.936-2.429-2.498 0-1.592 1.045-2.566 2.508-2.566 1.442 0 2.408 1.015 2.408 2.487.001 1.781-1.254 2.577-2.487 2.577zm9.755 14.694c-.867.953-2.016 1.43-3.445 1.43-1.383 0-2.486-.457-3.305-1.373s-1.227-2.074-1.227-3.467c0-1.457.421-2.65 1.267-3.58.847-.932 1.981-1.391 3.414-1.391 1.386 0 2.494.455 3.334 1.375.797.885 1.197 2.037 1.197 3.442.001 1.451-.409 2.633-1.235 3.564zm2.16-19.649h.687v-.906l1.204-.338v1.244h1.163v.915h-1.163v2.139c0 .598.159.896.626.896.219 0 .339-.011.479-.05l.021.925c-.181.069-.509.13-.886.13-.458 0-.827-.149-1.055-.398-.27-.278-.389-.727-.389-1.363v-2.278h-.687v-.916zm5.367 13.296c-.206-.037-.428-.053-.658-.053-.736 0-1.302.277-1.704.831-.349.491-.522 1.103-.522 1.856v4.936h-2.09v-6.449c0-1.078-.019-2.064-.057-2.959h1.819l.078 1.801h.058c.218-.617.565-1.115 1.044-1.486.465-.34.972-.502 1.512-.502.193 0 .368.01.521.035v1.99zm.316-11.357v2.906h-1.223v-7.064h1.223v2.875h.02c.149-.229.359-.418.607-.547.249-.14.537-.219.846-.219.826 0 1.692.547 1.692 2.1v2.855h-1.225v-2.726c0-.696-.259-1.234-.935-1.234-.478 0-.816.319-.955.688-.039.108-.05.237-.05.366zm8.629 14.73h-6.272c.024.93.327 1.636.91 2.125.527.44 1.211.66 2.051.66.931 0 1.774-.148 2.535-.449l.33 1.454c-.888.39-1.941.579-3.157.579-1.456 0-2.602-.426-3.434-1.285-.831-.857-1.251-2.01-1.251-3.453 0-1.422.39-2.6 1.162-3.547.816-1.005 1.913-1.506 3.291-1.506 1.359 0 2.384.501 3.079 1.506.552.803.831 1.791.831 2.967 0 .371-.026.687-.075.949zm-43.209-15.824c-.497 0-.955.358-1.085.896-.02.09-.04.199-.04.319v.786l.03.29c.13.496.558.855 1.084.855.768 0 1.234-.607 1.234-1.592.001-.857-.407-1.554-1.223-1.554zm8.809-.119c-.756 0-1.074.687-1.123 1.184h2.129c.008-.449-.19-1.184-1.006-1.184zm8.222.049c-.866 0-1.214.846-1.214 1.651 0 .936.468 1.643 1.204 1.643.696 0 1.184-.677 1.184-1.662 0-.756-.338-1.632-1.174-1.632zm-23.551 2.607c0 .478.31.696.696.696.498 0 .847-.318.966-.666.029-.09.029-.18.029-.27v-.666c-.864-.009-1.691.17-1.691.906zm47.6-2.656c-.756 0-1.074.687-1.124 1.184h2.129c.011-.449-.19-1.184-1.005-1.184z"/><path fill="#fff" d="M108.477 152.522h-103.015c-3.012 0-5.462-2.447-5.462-5.455v-29.604c0-3.013 2.45-5.463 5.462-5.463h103.015c3.012 0 5.462 2.45 5.462 5.462v29.604c-.001 3.009-2.451 5.456-5.462 5.456zm-103.015-39.108c-2.232 0-4.048 1.816-4.048 4.048v29.604c0 2.229 1.815 4.041 4.048 4.041h103.015c2.231 0 4.048-1.812 4.048-4.041v-29.604c0-2.232-1.816-4.048-4.048-4.048h-103.015z"/><g fill="#00AAA0"><path d="M48 69.291s-.005-37.011 0-39.576c.005-2.566 3.209-9.508 13.013-10.021h26.939s3.048.563 3.048 2.814v37.614s-.877 2.068-3.049 2.068h-28.402s-7.549.293-11.549 7.101"/><path d="M41 49.504s-.091-37.05 0-39.577c.091-2.529-1.09-8.82-11.785-9.927h-26.941s-1.631.469-2.274 2.72v37.613s.105 2.164 2.276 2.164h28.403s6.321.198 10.321 7.007"/><path d="M114.862 40.024c-.61-2.473-2.152-4.283-5.179-4.283-4.45 0-6.314 4.072-6.314 8.203 0 4.133 1.864 8.203 6.314 8.203 3.23 0 5.004-2.503 5.296-5.64h3.55c-.291 5.158-3.813 8.716-8.846 8.716-6.226 0-9.949-5.127-9.949-11.279 0-6.15 3.723-11.278 9.949-11.278 4.684.031 8.381 2.714 8.817 7.358h-3.638zm6.514-6.845h3.317v7.992h.058c.814-1.418 2.533-2.474 4.511-2.474 3.26 0 5.324 1.81 5.324 5.309v10.705h-3.316v-9.801c-.06-2.443-.99-3.498-2.939-3.498-2.211 0-3.637 1.809-3.637 4.102v9.197h-3.317v-21.532zm28.134 18.063c0 .846.174 1.177.785 1.177.203 0 .465 0 .814-.061v2.384c-.494.18-1.541.392-2.096.392-1.338 0-2.299-.481-2.561-1.9-1.309 1.328-3.433 1.9-5.207 1.9-2.705 0-5.15-1.509-5.15-4.554 0-3.891 2.996-4.523 5.789-4.855 2.387-.451 4.511-.181 4.511-2.201 0-1.779-1.774-2.111-3.112-2.111-1.863 0-3.171.783-3.318 2.473h-3.315c.231-4.011 3.521-5.188 6.839-5.188 2.936 0 6.021 1.236 6.021 4.523v8.021zm-3.318-4.342c-1.019.694-2.618.664-4.074.936-1.426.24-2.704.783-2.704 2.593 0 1.539 1.891 1.99 3.053 1.99 1.455 0 3.726-.783 3.726-2.955v-2.564zm4.798-7.78h2.503v-4.674h3.315v4.674h2.998v2.563h-2.998v8.323c0 1.418.117 2.141 1.602 2.141.465 0 .93 0 1.396-.12v2.654c-.729.061-1.426.182-2.153.182-3.462 0-4.103-1.387-4.16-3.981v-9.198h-2.503v-2.564zm11.288-5.94h3.317v7.961h.057c.902-1.508 2.794-2.443 4.48-2.443 4.742 0 7.043 3.739 7.043 8.294 0 4.191-2.039 8.143-6.489 8.143-2.037 0-4.22-.513-5.208-2.562h-.059v2.14h-3.142v-21.533zm7.418 8.232c-2.792 0-4.218 2.201-4.218 5.519 0 3.136 1.542 5.488 4.218 5.488 3.026 0 4.161-2.774 4.161-5.488 0-2.835-1.425-5.519-4.161-5.519"/><path d="M178.685 46.9c0-4.766 2.765-8.203 7.595-8.203 4.828 0 7.594 3.438 7.594 8.203 0 4.796-2.766 8.233-7.594 8.233-4.831.001-7.595-3.437-7.595-8.233m11.872 0c0-2.684-1.311-5.488-4.277-5.488-2.969 0-4.277 2.805-4.277 5.488 0 2.715 1.309 5.519 4.277 5.519 2.966 0 4.277-2.804 4.277-5.519"/><path d="M195.354 46.9c0-4.766 2.766-8.203 7.594-8.203 4.83 0 7.594 3.438 7.594 8.203 0 4.796-2.764 8.233-7.594 8.233-4.829.001-7.594-3.437-7.594-8.233m11.872 0c0-2.684-1.312-5.488-4.278-5.488s-4.277 2.805-4.277 5.488c0 2.715 1.311 5.519 4.277 5.519s4.278-2.804 4.278-5.519"/><polygon points="212.808,33.179 216.125,33.179 216.125,45.424 222.119,39.12 226.192,39.12 220.431,44.85 226.746,54.711 222.701,54.711 218.104,47.143 216.125,49.133 216.125,54.711 212.808,54.711"/><path d="M230.263 49.705c.175 1.991 1.63 2.714 3.403 2.714 1.252 0 3.435-.271 3.347-2.05-.087-1.811-2.502-2.021-4.917-2.594-2.443-.543-4.83-1.448-4.83-4.613 0-3.409 3.55-4.465 6.285-4.465 3.084 0 5.877 1.327 6.283 4.796h-3.461c-.291-1.628-1.601-2.081-3.057-2.081-.96 0-2.734.24-2.734 1.598 0 1.689 2.445 1.931 4.888 2.504 2.415.572 4.858 1.478 4.858 4.553 0 3.711-3.607 5.067-6.719 5.067-3.783 0-6.605-1.749-6.664-5.429h3.318z"/></g><path fill="#fff" d="M190.398 95.926c-.564 0-1.116.051-1.661.124-1.094-4.086-3.432-9.653-8.419-14.166 1.022-1.563 1.412-3.43 1.099-5.291-.345-2.044-1.499-3.854-3.274-5.114-1.373-.967-2.96-1.479-4.589-1.479-2.412 0-4.681 1.162-6.082 3.127l-1.326 1.87c-2.434-.479-5.015-.726-7.722-.734h-.147c-2.681 0-5.238.233-7.649.695l-1.312-1.851c-1.387-1.945-3.656-3.107-6.068-3.107-1.633 0-3.222.514-4.61 1.494-3.441 2.443-4.371 6.9-2.209 10.304-4.724 4.268-7.271 9.646-8.46 14.237-.514-.065-1.034-.109-1.564-.109-6.84 0-12.405 5.564-12.405 12.403v23.182c0 6.84 5.564 12.404 12.405 12.404l.544-.027v1.841c0 5.238 3.992 9.562 9.094 10.091v5.694c0 6.84 5.564 12.404 12.404 12.404 4.072 0 7.692-1.972 9.955-5.012 2.263 3.04 5.883 5.012 9.955 5.012 6.841 0 12.405-5.564 12.405-12.404v-5.694c5.102-.528 9.093-4.853 9.093-10.091v-1.841l.544.027c6.841 0 12.405-5.564 12.405-12.404v-23.182c-.001-6.839-5.565-12.403-12.406-12.403z"/><g fill="#86C440"><path d="M182.608 147.248c0 1.601-1.298 2.898-2.898 2.898h-42.616c-1.6 0-2.899-1.298-2.899-2.898v-38.01c0-1.601 1.299-2.897 2.899-2.897h42.616c1.601 0 2.898 1.297 2.898 2.897v38.01z"/><rect x="134.149" y="106.341" width="48.505" height="19.966"/></g><path d="M195.557 133.03c0 2.849-2.309 5.158-5.159 5.158-2.848 0-5.158-2.31-5.158-5.158v-23.182c0-2.849 2.311-5.158 5.158-5.158 2.851 0 5.159 2.31 5.159 5.158v23.182zm-63.994 0c0 2.849-2.31 5.158-5.159 5.158-2.849 0-5.159-2.31-5.159-5.158v-23.182c0-2.849 2.31-5.158 5.159-5.158 2.849 0 5.159 2.31 5.159 5.158v23.182z" fill="#86C440"/><path fill="#86C440" d="M134.35 103.484s.536-20.528 24.052-20.456c23.294.072 24.052 20.456 24.052 20.456h-48.104z"/><g fill="#fff"><circle cx="147.845" cy="93.005" r="2.896"/><circle cx="168.958" cy="93.005" r="2.896"/></g><path d="M147.048 85.788c.085.12.348.082.587-.088.236-.167.361-.403.276-.523l-4.493-6.342c-.086-.121-.35-.081-.586.087-.239.169-.363.404-.277.525l4.493 6.341zm22.706 0c-.086.12-.347.082-.588-.088-.236-.167-.36-.403-.276-.523l4.493-6.342c.087-.121.351-.081.587.087.239.169.363.404.276.525l-4.492 6.341z" fill="#86C440"/><path d="M173.515 163.033c0 2.849-2.31 5.158-5.159 5.158-2.849 0-5.158-2.31-5.158-5.158v-23.183c0-2.849 2.31-5.158 5.158-5.158 2.85 0 5.159 2.31 5.159 5.158v23.183zm-19.91 0c0 2.849-2.31 5.158-5.158 5.158-2.849 0-5.158-2.31-5.158-5.158v-23.183c0-2.849 2.309-5.158 5.158-5.158s5.158 2.31 5.158 5.158v23.183z" fill="#86C440"/></svg>